<?xml version="1.0" encoding="UTF-8"?>
<svg id="Layer_1" xmlns="http://www.w3.org/2000/svg" version="1.1" viewBox="0 0 432 108">
  <!-- Generator: Adobe Illustrator 29.0.1, SVG Export Plug-In . SVG Version: 2.1.0 Build 192)  -->
  <defs>
    <style>
      .st0 {
        fill: #ed1c24;
      }

      .st1 {
        fill: #003750;
      }
    </style>
  </defs>
  <polygon class="st0" points="36.46 19.21 36.46 78.87 53.68 49.04 88.13 49.04 36.46 19.21"/>
  <g>
    <polygon class="st1" points="30.66 90.3 30.66 14.06 8.64 52.18 30.66 90.3"/>
    <polygon class="st1" points="35.29 11.57 101.33 49.69 79.32 11.57 35.29 11.57"/>
    <polygon class="st1" points="57.31 54.83 35.29 92.96 79.31 92.96 101.33 54.83 57.31 54.83"/>
    <g>
      <g>
        <path class="st1" d="M116.19,35.87c0-13.87,10.72-25.05,25.72-25.05s25.72,11.17,25.72,25.05-10.72,25.12-25.72,25.12-25.72-11.17-25.72-25.12ZM156.69,35.87c0-8.62-6.22-15.52-14.7-15.52s-14.85,6.9-14.85,15.52,6.3,15.6,14.85,15.6,14.7-6.9,14.7-15.6Z"/>
        <path class="st1" d="M174.21,22.67h9.82v5.02c3-4.12,7.27-5.77,11.85-5.77,9.9,0,13.35,6.37,13.35,16.65v21.6h-10.05v-20.32c0-5.47-1.42-8.4-6.52-8.4s-8.4,4.05-8.4,9.75v18.97h-10.05V22.67Z"/>
      </g>
      <g>
        <path class="st1" d="M214.96,41.42c0-10.8,8.4-19.5,19.42-19.5,10.2,0,18.22,8.7,18.22,19.35,0,1.8-.22,3.6-.22,3.6h-27.22c1.2,5.17,5.47,7.65,10.42,7.65,3.6,0,7.35-1.05,10.12-2.92l3.75,7.2c-4.2,2.77-9.07,4.12-13.95,4.12-10.95,0-20.55-7.12-20.55-19.5h.01ZM243.15,38.19c-.75-4.72-4.5-7.87-9.07-7.87s-8.1,3.15-9.07,7.87h18.15,0Z"/>
        <path class="st1" d="M252.75,11.57h10.65l7.87,28.65c.82,3,1.72,6.75,1.8,7.12.07-.37.82-3.97,1.65-7.12l7.27-28.65h10.87l7.2,28.65c.75,3.07,1.5,6.75,1.57,7.12.15-.37.97-4.05,1.88-7.12l8.1-28.65h10.42l-14.47,48.67h-11.1l-7.42-27.6c-.9-3.37-1.5-7.95-1.65-8.47-.15.53-.75,5.1-1.65,8.47l-7.42,27.6h-11.17l-14.4-48.67h0Z"/>
      </g>
      <g>
        <path class="st1" d="M321.44,41.42c0-10.8,8.4-19.5,19.42-19.5,10.2,0,18.22,8.7,18.22,19.35,0,1.8-.23,3.6-.23,3.6h-27.22c1.2,5.17,5.47,7.65,10.42,7.65,3.6,0,7.35-1.05,10.12-2.92l3.75,7.2c-4.2,2.77-9.07,4.12-13.95,4.12-10.95,0-20.55-7.12-20.55-19.5h.02ZM349.64,38.19c-.75-4.72-4.5-7.87-9.07-7.87s-8.1,3.15-9.07,7.87h18.15,0Z"/>
        <path class="st1" d="M361.99,55.81l3.6-7.72c2.55,1.95,6.07,3.97,11.7,3.97,2.32,0,6.15-.9,6.15-3.15s-3.22-2.77-6.45-3.67c-7.42-1.95-13.5-4.42-13.5-11.62,0-7.65,7.5-11.7,14.55-11.7,6.15,0,10.05,1.5,13.95,3.75l-3.37,7.5c-3.67-1.8-7.12-2.62-10.42-2.62-2.32,0-4.5,1.05-4.5,2.62,0,2.1,3.15,2.77,6.6,3.52,6.37,1.5,13.35,4.27,13.35,11.92,0,9.22-9.37,12.3-16.35,12.3-8.02,0-13.2-3.15-15.3-5.1h-.01Z"/>
      </g>
      <path class="st1" d="M402.28,48.09v-17.32h-5.47v-8.1h5.47v-7.2l10.05-2.25v9.45h10.35v8.1h-10.35v17.17c0,3.22,1.57,4.27,3.37,4.27,2.4,0,4.5-1.35,4.8-1.57l2.85,7.42c-2.25,1.5-5.55,2.85-9.52,2.85-7.5,0-11.55-4.35-11.55-12.82Z"/>
    </g>
    <path class="st1" d="M122.87,75.2h3.35l2.82,3.98c1.05,1.47,3.23,4.65,3.23,4.65,0,0,2.21-3.15,3.24-4.62l2.82-4.01h3.35v17.92h-3.87v-11.34s-.69,1.13-1.63,2.49l-3.9,5.56-3.93-5.59c-.91-1.3-1.6-2.46-1.6-2.46v11.34h-3.87v-17.92h-.01Z"/>
    <path class="st1" d="M143.84,86.2c0-3.98,2.43-7.19,6.25-7.19,1.6,0,3.32.64,4.31,1.96v-1.69h3.62v13.83h-3.62v-1.66c-.97,1.33-2.71,1.94-4.31,1.94-3.82,0-6.25-3.21-6.25-7.19ZM154.32,86.2c0-2.16-1.38-3.76-3.29-3.76s-3.43,1.6-3.43,3.76,1.44,3.76,3.43,3.76,3.29-1.55,3.29-3.76Z"/>
    <path class="st1" d="M160.89,79.29h3.62v1.85c1.11-1.52,2.68-2.13,4.37-2.13,3.65,0,4.92,2.35,4.92,6.14v7.96h-3.71v-7.49c0-2.02-.52-3.1-2.41-3.1s-3.1,1.49-3.1,3.59v7h-3.71v-13.83h.02Z"/>
    <path class="st1" d="M176.14,87.56v-8.27h3.71v7.77c0,1.94.83,2.82,2.54,2.82,1.94,0,2.88-1.63,2.88-3.51v-7.08h3.71v13.83h-3.48v-1.94c-.83,1.35-2.71,2.21-4.31,2.21-3.82,0-5.03-2.24-5.03-5.84h-.02Z"/>
    <path class="st1" d="M193.46,82.3h-2.16v-2.98h2.16v-.91c0-3.21,1.77-4.59,4.12-4.59,1.24,0,2.63.36,3.59.86l-1.05,2.74c-.3-.14-.91-.42-1.55-.42-.77,0-1.41.39-1.41,1.83v.5h3.46v2.98h-3.46v10.81h-3.71v-10.81h.01Z"/>
    <path class="st1" d="M201.18,86.2c0-3.98,2.43-7.19,6.25-7.19,1.6,0,3.32.64,4.31,1.96v-1.69h3.62v13.83h-3.62v-1.66c-.97,1.33-2.71,1.94-4.31,1.94-3.82,0-6.25-3.21-6.25-7.19ZM211.66,86.2c0-2.16-1.38-3.76-3.29-3.76s-3.43,1.6-3.43,3.76,1.44,3.76,3.43,3.76,3.29-1.55,3.29-3.76Z"/>
    <path class="st1" d="M217.17,86.2c0-4.01,3.26-7.19,7.38-7.19,1.91,0,3.57.64,4.95,1.77l-2.24,2.6c-.64-.58-1.52-.94-2.63-.94-2.16,0-3.71,1.58-3.71,3.76s1.47,3.76,3.82,3.76c1.16,0,2.29-.44,3.01-1.13l1.96,2.77c-1.33,1.13-3.18,1.8-5.17,1.8-4.12,0-7.38-3.18-7.38-7.19h.01Z"/>
    <path class="st1" d="M232.62,88.66v-6.39h-2.02v-2.99h2.02v-2.65l3.71-.83v3.48h3.82v2.99h-3.82v6.33c0,1.19.58,1.58,1.24,1.58.88,0,1.66-.5,1.77-.58l1.05,2.74c-.83.55-2.05,1.05-3.51,1.05-2.77,0-4.26-1.61-4.26-4.73h0Z"/>
    <path class="st1" d="M242.27,87.56v-8.27h3.71v7.77c0,1.94.83,2.82,2.54,2.82,1.94,0,2.88-1.63,2.88-3.51v-7.08h3.71v13.83h-3.48v-1.94c-.83,1.35-2.71,2.21-4.31,2.21-3.82,0-5.03-2.24-5.03-5.84h-.02Z"/>
    <path class="st1" d="M258,79.29h3.65v2.65c.39-1.13,1.8-2.93,4.84-2.93v4.04c-3.21,0-4.78,1.47-4.78,4.76v5.31h-3.71v-13.83Z"/>
    <path class="st1" d="M268.42,75.42c0-1.22,1-2.21,2.18-2.21s2.21,1,2.21,2.21-1,2.18-2.21,2.18-2.18-1-2.18-2.18ZM268.78,79.29h3.71v13.83h-3.71v-13.83Z"/>
    <path class="st1" d="M275.83,79.29h3.62v1.85c1.11-1.52,2.68-2.13,4.37-2.13,3.65,0,4.92,2.35,4.92,6.14v7.96h-3.71v-7.49c0-2.02-.53-3.1-2.41-3.1s-3.1,1.49-3.1,3.59v7h-3.71v-13.83h.02Z"/>
    <path class="st1" d="M291.59,95.47l1.38-2.32c1.11.86,2.71,1.24,4.01,1.24,2.57,0,3.87-1.55,3.98-3.76.03-.08.03-.19.03-.3-.61,1.08-2.1,2.05-4.15,2.05-3.84,0-6.25-2.99-6.25-6.66s2.41-6.69,6.25-6.69c1.77,0,3.59.78,4.34,2.16v-1.88h3.51v10.48c0,4.53-2.74,7.41-7.33,7.41-2.49,0-4.51-.66-5.78-1.71v-.02h0ZM301.02,85.62c0-1.94-1.44-3.4-3.35-3.4s-3.32,1.47-3.32,3.48,1.44,3.43,3.32,3.43,3.35-1.44,3.35-3.51Z"/>
    <path class="st1" d="M316.15,75.2h7.69c5.25,0,8.02,3.1,8.02,6.91s-2.77,6.91-8.05,6.91h-3.79v4.09h-3.87v-17.92h0ZM324,85.7c2.29,0,3.79-1.6,3.79-3.59s-1.49-3.59-3.76-3.59h-4.01v7.19h3.98Z"/>
    <path class="st1" d="M332.67,86.2c0-3.98,2.43-7.19,6.25-7.19,1.6,0,3.32.64,4.31,1.96v-1.69h3.62v13.83h-3.62v-1.66c-.97,1.33-2.71,1.94-4.31,1.94-3.82,0-6.25-3.21-6.25-7.19ZM343.15,86.2c0-2.16-1.38-3.76-3.29-3.76s-3.43,1.6-3.43,3.76,1.44,3.76,3.43,3.76,3.29-1.55,3.29-3.76Z"/>
    <path class="st1" d="M349.64,79.29h3.65v2.65c.39-1.13,1.8-2.93,4.84-2.93v4.04c-3.21,0-4.78,1.47-4.78,4.76v5.31h-3.71v-13.83Z"/>
    <path class="st1" d="M362.09,88.66v-6.39h-2.02v-2.99h2.02v-2.65l3.7-.83v3.48h3.82v2.99h-3.82v6.33c0,1.19.58,1.58,1.25,1.58.88,0,1.66-.5,1.77-.58l1.05,2.74c-.83.55-2.05,1.05-3.51,1.05-2.77,0-4.26-1.61-4.26-4.73h0Z"/>
    <path class="st1" d="M371.92,79.29h3.62v1.85c1.11-1.52,2.68-2.13,4.37-2.13,3.65,0,4.92,2.35,4.92,6.14v7.96h-3.71v-7.49c0-2.02-.53-3.1-2.41-3.1s-3.1,1.49-3.1,3.59v7h-3.71v-13.83h.02Z"/>
    <path class="st1" d="M386.54,86.2c0-3.98,3.1-7.19,7.16-7.19,3.76,0,6.72,3.21,6.72,7.14,0,.66-.08,1.33-.08,1.33h-10.04c.44,1.91,2.02,2.82,3.84,2.82,1.33,0,2.71-.39,3.73-1.08l1.38,2.65c-1.55,1.02-3.35,1.52-5.14,1.52-4.04,0-7.58-2.63-7.58-7.19h0ZM396.94,85.01c-.28-1.74-1.66-2.9-3.35-2.9s-2.99,1.16-3.35,2.9h6.7Z"/>
    <path class="st1" d="M402.3,79.29h3.65v2.65c.39-1.13,1.8-2.93,4.84-2.93v4.04c-3.21,0-4.78,1.47-4.78,4.76v5.31h-3.71v-13.83Z"/>
    <path class="st1" d="M411.53,91.51l1.33-2.85c.94.72,2.24,1.47,4.31,1.47.86,0,2.27-.33,2.27-1.16s-1.19-1.02-2.38-1.36c-2.74-.72-4.98-1.63-4.98-4.28,0-2.82,2.76-4.31,5.36-4.31,2.27,0,3.71.55,5.14,1.38l-1.24,2.77c-1.36-.66-2.63-.97-3.84-.97-.86,0-1.66.39-1.66.97,0,.77,1.16,1.02,2.43,1.3,2.35.55,4.92,1.58,4.92,4.4,0,3.4-3.46,4.54-6.03,4.54-2.96,0-4.87-1.16-5.64-1.88v-.02h.01Z"/>
  </g>
</svg>