<?xml version="1.0" encoding="utf-8"?>
<!-- Generator: Adobe Illustrator 24.1.0, SVG Export Plug-In . SVG Version: 6.00 Build 0)  -->
<svg version="1.1" id="Layer_1" xmlns="http://www.w3.org/2000/svg" xmlns:xlink="http://www.w3.org/1999/xlink" x="0px" y="0px"
	 viewBox="0 0 214.9 47.4" style="enable-background:new 0 0 214.9 47.4;" xml:space="preserve">
<style type="text/css">
	.st0{fill:#FFFFFF;}
	.st1{fill:#CCCCCC;}
	.st2{fill:#1C1C1C;}
	.st3{fill:#B22025;}
</style>
<g>
	<path class="st0" d="M78.3,6.8c-0.9-0.1-1.7-0.4-2.7-0.9V4.7h8.1v1.2c-0.4,0.2-0.7,0.4-1.2,0.6c-0.4,0.1-0.8,0.3-1.2,0.4l-5.7,20.3
		l-3.3,0.4L67.4,12l-4.8,15.1l-3.4,0.4L52.9,6.8c-0.4-0.1-0.8-0.2-1.2-0.4c-0.4-0.1-0.8-0.3-1.1-0.5V4.7H61v1.2
		c-0.4,0.2-0.8,0.3-1.3,0.5c-0.4,0.2-0.9,0.3-1.4,0.4l3,11.3l0.7,4.2h0.1l1.1-4.3l4.3-13.3h1.9l4.5,13.1L75,22h0.1l0.7-4.2L78.3,6.8
		z"/>
	<path class="st0" d="M96.7,24.4c-0.2,0.4-0.4,0.7-0.8,1.1c-0.4,0.4-0.8,0.7-1.4,1c-0.5,0.3-1.2,0.5-1.9,0.7
		c-0.7,0.2-1.5,0.3-2.3,0.3c-1.3,0-2.5-0.2-3.5-0.6s-1.9-1-2.6-1.7s-1.2-1.6-1.6-2.6s-0.5-2.2-0.5-3.5c0-2.7,0.7-4.8,2.1-6.2
		s3.4-2.1,6-2.1c1.1,0,2.1,0.1,3.1,0.4c0.9,0.3,1.7,0.8,2.4,1.5c0.6,0.7,1.1,1.6,1.3,2.7c0.2,1.1,0.2,2.5,0,4.1h-9.8
		c0,1.7,0.5,3,1.3,4c0.8,1,2.1,1.5,3.7,1.5c0.7,0,1.4-0.1,2.2-0.3c0.8-0.2,1.3-0.5,1.8-0.8L96.7,24.4z M90.1,12.5
		c-0.4,0-0.8,0.1-1.1,0.2c-0.3,0.1-0.6,0.4-0.9,0.8c-0.2,0.4-0.4,0.9-0.6,1.6c-0.1,0.7-0.3,1.5-0.3,2.5h5.1c0.1-1.7,0.1-2.9-0.3-3.8
		C91.6,12.9,91.1,12.5,90.1,12.5z"/>
	<path class="st0" d="M107.6,23.6c0-0.6-0.2-1-0.6-1.4s-0.9-0.8-1.5-1.1c-0.6-0.3-1.2-0.7-1.9-1c-0.7-0.3-1.3-0.7-1.9-1.2
		c-0.6-0.5-1.1-1-1.5-1.6c-0.4-0.6-0.6-1.4-0.6-2.3c0-0.6,0.1-1.2,0.4-1.7s0.7-1,1.2-1.3c0.5-0.4,1.1-0.6,1.8-0.8
		c0.7-0.2,1.5-0.3,2.3-0.3c1.2,0,2.2,0.1,3.2,0.3s1.9,0.4,2.6,0.8c-0.1,0.7-0.3,1.4-0.5,2.2c-0.3,0.8-0.5,1.5-0.7,2.1h-1.1l-1.2-3.5
		c-0.3-0.1-0.5-0.2-0.8-0.2c-0.3,0-0.6,0-0.9,0c-0.6,0-1.1,0.2-1.5,0.6c-0.3,0.4-0.5,0.8-0.5,1.3s0.2,1,0.6,1.4
		c0.4,0.4,0.9,0.8,1.5,1.1c0.6,0.3,1.2,0.7,1.9,1c0.7,0.3,1.3,0.7,1.9,1.2c0.6,0.4,1.1,1,1.5,1.6s0.6,1.3,0.6,2.1
		c0,1.5-0.6,2.6-1.8,3.5c-1.2,0.9-2.8,1.3-4.8,1.3c-1,0-2.1-0.1-3.2-0.3c-1.1-0.2-2-0.5-2.8-0.9c0-0.8,0.2-1.5,0.5-2.3
		c0.3-0.8,0.7-1.5,1-2.1h1.1l1.6,3.5c0.2,0.2,0.5,0.3,0.8,0.3c0.3,0,0.6,0,0.8,0c0.6,0,1.2-0.2,1.7-0.5
		C107.3,24.7,107.6,24.2,107.6,23.6z"/>
	<path class="st0" d="M113.1,11.9c0.8-0.5,1.7-0.9,2.6-1.1V8.2c0.2-0.1,0.6-0.3,1.3-0.6c0.6-0.3,1.3-0.5,2.2-0.6h1.1v4.1h4.2v2.1
		h-4.2v8.2c0,1.3,0.2,2.2,0.5,2.7s0.9,0.8,1.6,0.8c0.4,0,0.8,0,1.3-0.1s0.9-0.2,1.3-0.3l0.2,1.1c-0.2,0.2-0.5,0.4-0.8,0.6
		c-0.4,0.2-0.8,0.4-1.3,0.6s-1,0.4-1.6,0.5s-1.2,0.2-1.8,0.2c-1.4,0-2.4-0.4-3.1-1.1s-1-1.9-1-3.5v-9.7H113v-1.3H113.1z"/>
	<path class="st0" d="M127.8,5.6l-2.4-0.3V4.2c0.2-0.2,0.7-0.3,1.2-0.4c0.5-0.1,1.1-0.2,1.6-0.3c0.6-0.1,1.1-0.2,1.7-0.3
		c0.5-0.1,1-0.1,1.4-0.2h1.1v11.1h0.1c0.4-1.1,1.1-1.9,2-2.5c0.9-0.6,1.9-0.9,3.1-0.9c1.9,0,3.3,0.7,4.4,2c1,1.3,1.6,3.3,1.6,5.9
		c0,2.9-0.8,5.1-2.3,6.6s-3.8,2.2-6.8,2.2c-0.5,0-1.1,0-1.8-0.1s-1.3-0.2-1.9-0.3c-0.6-0.1-1.2-0.2-1.7-0.4s-0.9-0.3-1.1-0.4V5.6
		H127.8z M135.4,13.2c-0.8,0-1.5,0.3-2,0.9c-0.5,0.6-0.9,1.3-1.1,2.2v8.5c0.3,0.2,0.7,0.4,1.1,0.5c0.4,0.1,0.9,0.2,1.5,0.2
		c1.2,0,2.1-0.5,2.7-1.6c0.6-1.1,0.8-2.8,0.8-5.1c0-1.7-0.2-3-0.7-4C137.3,13.7,136.5,13.2,135.4,13.2z"/>
	<path class="st0" d="M153.7,14.7c-0.3,0.1-0.6,0.3-0.9,0.6s-0.7,0.8-0.9,1.5V25c0.4,0,0.9,0.1,1.3,0.2c0.4,0.1,0.9,0.3,1.3,0.5v1.2
		h-9.3v-1.2c0.4-0.2,0.7-0.4,1.1-0.5c0.3-0.1,0.7-0.2,1-0.3V13.3l-2.1-0.3v-1.2c0.3-0.1,0.8-0.3,1.3-0.4c0.5-0.1,1-0.2,1.6-0.3
		c0.5-0.1,1.1-0.2,1.6-0.2c0.5-0.1,0.9-0.1,1.3-0.2h1.1V15h0.1c0.2-0.5,0.4-1,0.8-1.5c0.3-0.5,0.7-1,1.2-1.4c0.4-0.4,0.9-0.8,1.5-1
		c0.5-0.3,1.1-0.4,1.7-0.4c0.2,0.3,0.4,0.7,0.6,1.3c0.2,0.5,0.3,1.1,0.4,1.6v1.2h-4.7V14.7z"/>
	<path class="st0" d="M159.2,19.1c0-1.3,0.2-2.5,0.6-3.5c0.4-1,1-1.9,1.7-2.6c0.7-0.7,1.6-1.3,2.7-1.7c1-0.4,2.2-0.6,3.6-0.6
		c1.5,0,2.8,0.2,3.9,0.6c1.1,0.4,2,1,2.7,1.7s1.2,1.6,1.5,2.7c0.3,1,0.5,2.2,0.5,3.4c0,1.3-0.2,2.5-0.6,3.5c-0.4,1-0.9,1.9-1.7,2.6
		c-0.7,0.7-1.6,1.3-2.7,1.7c-1.1,0.4-2.2,0.6-3.6,0.6c-1.5,0-2.7-0.2-3.8-0.6c-1.1-0.4-2-1-2.7-1.7s-1.2-1.6-1.6-2.7
		C159.4,21.4,159.2,20.3,159.2,19.1z M164.2,19.1c0,1,0.1,1.8,0.2,2.6c0.1,0.8,0.3,1.5,0.6,2c0.3,0.6,0.7,1,1.2,1.3s1.2,0.5,2,0.5
		c0.5,0,0.9-0.1,1.3-0.3c0.4-0.2,0.7-0.6,1-1.1s0.5-1.2,0.6-2c0.1-0.8,0.2-1.8,0.2-3c0-1-0.1-1.9-0.2-2.7c-0.1-0.8-0.3-1.5-0.6-2
		c-0.3-0.5-0.7-1-1.2-1.3s-1.1-0.5-1.9-0.5c-0.6,0-1,0.1-1.4,0.3c-0.4,0.2-0.7,0.6-1,1.1s-0.5,1.2-0.6,2
		C164.2,16.9,164.2,17.9,164.2,19.1z"/>
	<path class="st0" d="M178.2,19.1c0-1.3,0.2-2.5,0.6-3.5s1-1.9,1.7-2.6c0.7-0.7,1.6-1.3,2.7-1.7c1-0.4,2.2-0.6,3.6-0.6
		c1.5,0,2.8,0.2,3.9,0.6c1.1,0.4,2,1,2.7,1.7s1.2,1.6,1.5,2.7c0.3,1,0.5,2.2,0.5,3.4c0,1.3-0.2,2.5-0.6,3.5c-0.4,1-0.9,1.9-1.7,2.6
		c-0.7,0.7-1.6,1.3-2.7,1.7c-1.1,0.4-2.2,0.6-3.6,0.6c-1.5,0-2.7-0.2-3.8-0.6s-2-1-2.7-1.7s-1.2-1.6-1.6-2.7
		C178.4,21.4,178.2,20.3,178.2,19.1z M183.2,19.1c0,1,0.1,1.8,0.2,2.6c0.1,0.8,0.3,1.5,0.6,2c0.3,0.6,0.7,1,1.2,1.3s1.2,0.5,2,0.5
		c0.5,0,0.9-0.1,1.3-0.3c0.4-0.2,0.7-0.6,1-1.1s0.5-1.2,0.6-2s0.2-1.8,0.2-3c0-1-0.1-1.9-0.2-2.7c-0.1-0.8-0.3-1.5-0.6-2
		s-0.7-1-1.2-1.3s-1.1-0.5-1.9-0.5c-0.6,0-1,0.1-1.4,0.3s-0.7,0.6-1,1.1s-0.5,1.2-0.6,2C183.2,16.9,183.2,17.9,183.2,19.1z"/>
	<path class="st0" d="M206.5,11.1h7.5v1.2c-0.4,0.2-0.8,0.3-1.1,0.5c-0.4,0.1-0.7,0.2-1.2,0.3c-0.3,0.4-0.7,0.9-1,1.3
		c-0.4,0.4-0.7,0.8-1.1,1.2c-0.4,0.4-0.7,0.8-1.1,1.1s-0.7,0.7-0.9,0.9c0.3,0.4,0.7,0.9,1.1,1.5c0.4,0.6,0.9,1.2,1.4,1.9
		c0.5,0.7,1,1.4,1.6,2.1c0.5,0.7,1.1,1.4,1.6,2l1.6,0.8v1.2h-5.4l-0.9-0.8c-0.5-0.7-0.9-1.3-1.3-1.9c-0.4-0.6-0.7-1.1-1-1.7
		c-0.3-0.5-0.6-1.1-0.9-1.6c-0.3-0.5-0.6-1-0.8-1.5l-1.1-0.3V25c0.4,0.1,0.7,0.2,1,0.3c0.3,0.1,0.6,0.3,1,0.5V27h-8.7v-1.2
		c0.7-0.3,1.4-0.6,2.1-0.8V5.6l-2.4-0.3V4.2c0.3-0.1,0.7-0.3,1.2-0.4c0.5-0.1,1.1-0.2,1.6-0.3c0.6-0.1,1.1-0.2,1.7-0.3
		c0.6-0.1,1-0.1,1.4-0.2h1.1v15h0.8c0.7-0.8,1.4-1.6,2-2.5s1.1-1.7,1.6-2.5c-0.3-0.1-0.5-0.2-0.8-0.3c-0.2-0.1-0.5-0.3-0.7-0.5
		L206.5,11.1L206.5,11.1z"/>
	<path class="st1" d="M103.1,45.1h-3v-0.3c0.2-0.1,0.3-0.1,0.5-0.2c0.2-0.1,0.3-0.1,0.5-0.1V39v-1.4H101l-0.4,1.3l-2.5,6.2h-0.3
		l-2.2-6.2l-0.4-1.4h-0.1V39v5.4c0.2,0,0.3,0.1,0.5,0.1c0.2,0,0.3,0.1,0.5,0.2V45h-2.5v-0.3c0.2-0.1,0.3-0.1,0.5-0.2
		c0.2-0.1,0.3-0.1,0.5-0.1v-7.1c-0.2,0-0.3-0.1-0.5-0.1c-0.2,0-0.5-0.1-0.6-0.2v-0.3H96l2.1,5.5l0.4,1.2l0,0l0.4-1.3l2.2-5.5h2.1V37
		c-0.1,0.1-0.3,0.1-0.4,0.2c-0.1,0.1-0.3,0.1-0.5,0.1v7.1c0.2,0,0.3,0.1,0.5,0.1c0.1,0,0.3,0.1,0.4,0.2v0.4H103.1z"/>
	<path class="st1" d="M108.4,43.5c0,0.2,0,0.3,0,0.5c0,0.1,0,0.3,0,0.4l0.8,0.1v0.3c-0.2,0.1-0.4,0.2-0.7,0.3
		c-0.2,0.1-0.5,0.1-0.7,0.2h-0.2c-0.1-0.2-0.1-0.4-0.1-0.6c0-0.2,0-0.5,0-0.7h-0.1c0,0.2-0.1,0.3-0.2,0.5s-0.2,0.3-0.4,0.4
		c-0.1,0.1-0.3,0.2-0.5,0.3c-0.2,0.1-0.4,0.1-0.7,0.1c-0.5,0-0.9-0.1-1.2-0.4c-0.3-0.3-0.5-0.7-0.5-1.2c0-0.4,0.1-0.7,0.2-0.9
		s0.4-0.4,0.7-0.6c0.3-0.1,0.6-0.2,1.1-0.3c0.4-0.1,0.9-0.1,1.5-0.1c0-0.3,0-0.7,0-0.9s-0.1-0.5-0.1-0.7c-0.1-0.2-0.2-0.3-0.3-0.5
		c-0.1-0.1-0.3-0.2-0.6-0.2c-0.1,0-0.2,0-0.4,0c-0.1,0-0.3,0-0.4,0.1L105,41h-0.3c-0.1-0.2-0.2-0.5-0.2-0.7
		c-0.1-0.3-0.1-0.5-0.1-0.8c0.3-0.2,0.6-0.3,1-0.4s0.8-0.2,1.2-0.2s0.7,0.1,1,0.2c0.2,0.1,0.4,0.3,0.6,0.5s0.2,0.4,0.3,0.6
		c0,0.2,0.1,0.4,0.1,0.7c0,0.5,0,0.9,0,1.4C108.5,42.7,108.4,43.1,108.4,43.5z M106.1,44.5c0.2,0,0.4,0,0.5-0.1
		c0.2-0.1,0.3-0.2,0.4-0.3s0.2-0.2,0.3-0.3s0.1-0.2,0.1-0.3v-1.3c-0.5,0-0.8,0-1.1,0.1c-0.3,0.1-0.5,0.1-0.7,0.2
		c-0.2,0.1-0.3,0.2-0.3,0.4c-0.1,0.2-0.1,0.3-0.1,0.5c0,0.3,0.1,0.6,0.3,0.8C105.6,44.4,105.8,44.5,106.1,44.5z"/>
	<path class="st1" d="M116.5,45.1h-2.6v-0.3c0.2-0.1,0.5-0.2,0.7-0.3v-2.8c0-0.6-0.1-1.1-0.3-1.4c-0.2-0.4-0.5-0.5-1-0.5
		c-0.2,0-0.4,0-0.6,0.1c-0.2,0.1-0.3,0.2-0.5,0.3c-0.2,0.1-0.2,0.3-0.3,0.4c-0.1,0.2-0.2,0.3-0.2,0.5v3.5c0.2,0,0.5,0.1,0.7,0.3v0.3
		h-2.6v-0.3c0.2-0.1,0.5-0.2,0.8-0.3v-4.7l-0.8-0.1v-0.3c0.2-0.1,0.4-0.2,0.7-0.2c0.3-0.1,0.6-0.1,0.9-0.2h0.3v1.3l0,0
		c0.2-0.4,0.4-0.7,0.7-0.9c0.3-0.2,0.7-0.4,1.1-0.4c0.3,0,0.6,0,0.9,0.1c0.3,0.1,0.5,0.2,0.6,0.4s0.3,0.4,0.4,0.8s0.1,0.7,0.1,1.2v3
		c0.3,0.1,0.6,0.2,0.8,0.3v0.2H116.5z"/>
	<path class="st1" d="M117.6,42.7c0-0.5,0-1,0-1.5s0-1,0-1.4l-0.8-0.1v-0.3c0.3-0.1,0.5-0.2,0.8-0.3s0.5-0.1,0.8-0.2h0.3
		c0,0.6,0,1.2,0,1.8s0,1.2,0,1.8c0,0.3,0,0.6,0.1,0.8s0.1,0.5,0.2,0.6c0.1,0.2,0.2,0.3,0.4,0.4c0.2,0.1,0.4,0.1,0.6,0.1
		c0.4,0,0.7-0.1,0.9-0.4c0.2-0.3,0.4-0.6,0.6-1v-3.3l-0.8-0.1v-0.3c0.2-0.1,0.5-0.2,0.8-0.3s0.5-0.1,0.8-0.2h0.3v5.5l0.8,0.1v0.3
		c-0.2,0.1-0.5,0.2-0.7,0.3s-0.5,0.1-0.7,0.2h-0.4l-0.1-1.4l0,0c0,0.2-0.1,0.3-0.2,0.5s-0.2,0.3-0.4,0.5c-0.2,0.1-0.3,0.3-0.5,0.3
		c-0.2,0.1-0.4,0.1-0.7,0.1c-0.3,0-0.6,0-0.8-0.1c-0.2-0.1-0.5-0.2-0.6-0.4s-0.3-0.4-0.4-0.8C117.7,43.6,117.6,43.2,117.6,42.7z"/>
	<path class="st1" d="M127.3,36c0.1,0,0.2,0,0.3,0c0.1,0,0.2,0,0.3,0c0.1,0,0.2,0,0.3,0s0.2,0,0.3,0.1c0,0.3-0.1,0.5-0.1,0.7
		s-0.1,0.4-0.2,0.6h-0.3l-0.5-1c-0.2,0-0.4,0-0.6,0.1c-0.2,0-0.3,0.1-0.4,0.3c-0.1,0.1-0.2,0.3-0.2,0.6s-0.1,0.6-0.1,1V39h1.4v0.6
		h-1.4v4.8c0.4,0,0.8,0.1,1.2,0.3V45h-3v-0.3c0.2-0.1,0.5-0.2,0.8-0.3v-4.8h-0.9v-0.3c0.3-0.2,0.6-0.3,0.9-0.4v-0.4
		c0-0.5,0.1-0.9,0.2-1.2s0.3-0.6,0.5-0.8s0.5-0.3,0.8-0.4S126.9,36,127.3,36z"/>
	<path class="st1" d="M132.6,43.5c0,0.2,0,0.3,0,0.5c0,0.1,0,0.3,0,0.4l0.8,0.1v0.3c-0.2,0.1-0.4,0.2-0.7,0.3
		c-0.2,0.1-0.5,0.1-0.7,0.2h-0.3c-0.1-0.2-0.1-0.4-0.1-0.6c0-0.2,0-0.5,0-0.7h0c0,0.2-0.1,0.3-0.2,0.5c-0.1,0.2-0.2,0.3-0.4,0.4
		c-0.1,0.1-0.3,0.2-0.5,0.3s-0.4,0.1-0.7,0.1c-0.5,0-0.9-0.1-1.2-0.4c-0.3-0.3-0.5-0.7-0.5-1.2c0-0.4,0.1-0.7,0.2-0.9
		c0.1-0.2,0.4-0.4,0.7-0.6c0.3-0.1,0.6-0.2,1.1-0.3c0.4-0.1,0.9-0.1,1.5-0.1c0-0.3,0-0.7,0-0.9s-0.1-0.5-0.1-0.7
		c-0.1-0.2-0.2-0.3-0.3-0.5c-0.1-0.1-0.3-0.2-0.6-0.2c-0.1,0-0.2,0-0.4,0c-0.1,0-0.3,0-0.4,0.1l-0.6,1.4h-0.3
		c-0.1-0.2-0.2-0.5-0.2-0.7c-0.1-0.3-0.1-0.5-0.1-0.8c0.3-0.2,0.6-0.3,1-0.4c0.4-0.1,0.8-0.2,1.2-0.2c0.4,0,0.7,0.1,1,0.2
		c0.2,0.1,0.4,0.3,0.6,0.5s0.2,0.4,0.3,0.6c0,0.2,0.1,0.4,0.1,0.7c0,0.5,0,0.9,0,1.4C132.6,42.7,132.6,43.1,132.6,43.5z M130.3,44.5
		c0.2,0,0.4,0,0.5-0.1c0.2-0.1,0.3-0.2,0.4-0.3c0.1-0.1,0.2-0.2,0.3-0.3c0.1-0.1,0.1-0.2,0.1-0.3v-1.3c-0.5,0-0.8,0-1.1,0.1
		c-0.3,0.1-0.5,0.1-0.7,0.2s-0.3,0.2-0.3,0.4c-0.1,0.2-0.1,0.3-0.1,0.5c0,0.3,0.1,0.6,0.3,0.8C129.8,44.4,130,44.5,130.3,44.5z"/>
	<path class="st1" d="M138.9,44.2c-0.1,0.3-0.4,0.5-0.7,0.7s-0.7,0.3-1.1,0.3c-0.5,0-0.9-0.1-1.2-0.2c-0.3-0.1-0.6-0.4-0.9-0.6
		c-0.2-0.3-0.4-0.6-0.5-1c-0.1-0.4-0.2-0.8-0.2-1.3c0-1,0.2-1.8,0.7-2.3s1.2-0.8,2-0.8c0.4,0,0.7,0,1,0.1s0.6,0.2,0.8,0.3
		c0,0.3-0.1,0.6-0.1,0.9s-0.1,0.5-0.2,0.7h-0.3l-0.5-1.4c-0.1,0-0.1-0.1-0.2-0.1c-0.1,0-0.2,0-0.4,0c-0.5,0-1,0.2-1.3,0.6
		s-0.4,1.1-0.4,2c0,0.3,0,0.6,0.1,0.9c0.1,0.3,0.2,0.5,0.4,0.8c0.2,0.2,0.4,0.4,0.6,0.5c0.3,0.1,0.6,0.2,0.9,0.2s0.5,0,0.7-0.1
		s0.4-0.2,0.5-0.3L138.9,44.2z"/>
	<path class="st1" d="M139.5,39.4c0.3-0.2,0.6-0.3,1-0.4v-1c0.1-0.1,0.2-0.2,0.4-0.2c0.1-0.1,0.3-0.1,0.4-0.2h0.3v1.6h1.8v0.6h-1.8
		v3.5c0,0.5,0.1,0.8,0.2,1c0.2,0.2,0.4,0.3,0.7,0.3c0.1,0,0.3,0,0.5,0s0.4-0.1,0.6-0.1l0.1,0.2c-0.1,0.1-0.2,0.1-0.3,0.2
		c-0.1,0.1-0.2,0.2-0.4,0.2c-0.1,0.1-0.3,0.1-0.5,0.2c-0.2,0-0.4,0.1-0.5,0.1c-0.5,0-0.8-0.1-1.1-0.4c-0.3-0.3-0.4-0.7-0.4-1.3v-3.8
		h-1L139.5,39.4L139.5,39.4z"/>
	<path class="st1" d="M144.7,42.7c0-0.5,0-1,0-1.5s0-1,0-1.4l-0.8-0.1v-0.3c0.3-0.1,0.5-0.2,0.8-0.3s0.5-0.1,0.8-0.2h0.3
		c0,0.6,0,1.2,0,1.8s0,1.2,0,1.8c0,0.3,0,0.6,0.1,0.8c0.1,0.2,0.1,0.5,0.2,0.6c0.1,0.2,0.2,0.3,0.4,0.4c0.2,0.1,0.4,0.1,0.6,0.1
		c0.4,0,0.7-0.1,0.9-0.4c0.2-0.3,0.4-0.6,0.6-1v-3.3l-0.8-0.1v-0.3c0.2-0.1,0.5-0.2,0.8-0.3s0.5-0.1,0.8-0.2h0.2v5.5l0.8,0.1v0.3
		c-0.2,0.1-0.5,0.2-0.7,0.3s-0.5,0.1-0.7,0.2h-0.3l-0.1-1.4l0,0c0,0.2-0.1,0.3-0.2,0.5c-0.1,0.2-0.2,0.3-0.4,0.5
		c-0.2,0.1-0.3,0.3-0.5,0.3c-0.2,0.1-0.4,0.1-0.7,0.1c-0.3,0-0.6,0-0.8-0.1s-0.5-0.2-0.6-0.4c-0.1-0.2-0.3-0.4-0.4-0.8
		C144.8,43.6,144.7,43.2,144.7,42.7z"/>
	<path class="st1" d="M153.6,40c-0.1,0-0.2,0.1-0.3,0.3c-0.1,0.1-0.3,0.4-0.4,0.7v3.6c0.2,0,0.3,0,0.5,0.1c0.2,0,0.3,0.1,0.5,0.2
		v0.3h-2.8v-0.3c0.1-0.1,0.3-0.1,0.4-0.2c0.1-0.1,0.3-0.1,0.4-0.1v-4.7l-0.8-0.1v-0.3c0.3-0.1,0.5-0.2,0.8-0.3s0.5-0.1,0.8-0.2h0.3
		v1.3l0,0c0.1-0.2,0.2-0.3,0.3-0.5c0.1-0.2,0.3-0.3,0.5-0.4c0.2-0.1,0.4-0.2,0.6-0.3s0.4-0.1,0.6-0.1c0.1,0.1,0.1,0.2,0.1,0.3
		s0.1,0.3,0.1,0.4V40H153.6z"/>
	<path class="st1" d="M158.5,45.1h-2.7v-0.3c0.1-0.1,0.2-0.1,0.4-0.2c0.2-0.1,0.3-0.1,0.4-0.1v-4.7l-0.8-0.1v-0.3
		c0.2-0.1,0.5-0.2,0.8-0.3s0.5-0.1,0.8-0.2h0.3v5.6c0.2,0,0.3,0.1,0.4,0.1c0.1,0,0.2,0.1,0.4,0.2L158.5,45.1L158.5,45.1z M156.4,37
		c0-0.2,0.1-0.4,0.2-0.5c0.1-0.1,0.3-0.2,0.6-0.2c0.2,0,0.4,0.1,0.6,0.2c0.1,0.1,0.2,0.3,0.2,0.5s-0.1,0.4-0.2,0.5
		c-0.1,0.1-0.3,0.2-0.6,0.2c-0.2,0-0.4-0.1-0.6-0.2C156.4,37.4,156.4,37.2,156.4,37z"/>
	<path class="st1" d="M165.8,45.1h-2.6v-0.3c0.2-0.1,0.5-0.2,0.7-0.3v-2.8c0-0.6-0.1-1.1-0.3-1.4c-0.2-0.4-0.5-0.5-1-0.5
		c-0.2,0-0.4,0-0.6,0.1s-0.3,0.2-0.5,0.3s-0.2,0.3-0.3,0.4c-0.1,0.2-0.2,0.3-0.2,0.5v3.5c0.2,0,0.5,0.1,0.7,0.3v0.3h-2.6v-0.3
		c0.2-0.1,0.5-0.2,0.8-0.3v-4.7l-0.8-0.1v-0.3c0.2-0.1,0.4-0.2,0.7-0.2c0.3-0.1,0.6-0.1,0.9-0.2h0.3v1.3l0,0
		c0.2-0.4,0.4-0.7,0.7-0.9c0.3-0.2,0.7-0.4,1.1-0.4c0.3,0,0.6,0,0.9,0.1s0.5,0.2,0.6,0.4c0.1,0.2,0.3,0.4,0.4,0.8
		c0.1,0.4,0.1,0.7,0.1,1.2v3c0.3,0.1,0.6,0.2,0.8,0.3v0.2H165.8z"/>
	<path class="st1" d="M169,38.9c0.4,0,0.8,0,1.1,0.1c0.3,0.1,0.5,0.2,0.7,0.4c0.5-0.3,1-0.6,1.5-0.7c0.1,0.1,0.1,0.2,0.1,0.3
		s0,0.2,0,0.4l-0.2,0.3h-1.3c0.2,0.3,0.3,0.7,0.3,1.1c0,0.6-0.2,1-0.6,1.4c-0.4,0.4-1,0.5-1.8,0.5c-0.2,0-0.3,0-0.4,0
		c-0.1,0-0.2,0-0.3,0c0,0.1-0.1,0.2-0.1,0.2c-0.1,0.1-0.1,0.2-0.1,0.3c0,0.2,0.1,0.3,0.3,0.4c0.2,0.1,0.4,0.2,0.7,0.2
		c0.3,0.1,0.6,0.1,0.9,0.2c0.3,0.1,0.6,0.2,0.9,0.3s0.5,0.3,0.7,0.5s0.3,0.5,0.3,0.8s-0.1,0.5-0.2,0.8c-0.1,0.2-0.3,0.4-0.6,0.6
		c-0.2,0.2-0.5,0.3-0.9,0.4c-0.4,0.1-0.7,0.1-1.1,0.1c-0.9,0-1.5-0.1-2-0.4c-0.4-0.3-0.7-0.7-0.7-1.1c0-0.2,0-0.4,0.1-0.6
		c0.1-0.2,0.2-0.3,0.3-0.4s0.3-0.2,0.5-0.3s0.4-0.2,0.7-0.3c-0.2-0.1-0.3-0.2-0.4-0.3c-0.1-0.1-0.2-0.3-0.2-0.5s0.1-0.4,0.2-0.5
		c0.2-0.2,0.3-0.3,0.5-0.4c-0.5-0.1-0.8-0.3-1.1-0.7c-0.2-0.3-0.4-0.7-0.4-1.1c0-0.3,0.1-0.5,0.2-0.8c0.1-0.2,0.3-0.4,0.5-0.6
		c0.2-0.2,0.4-0.3,0.7-0.4C168.3,39,168.6,38.9,169,38.9z M170.8,46c0-0.3-0.1-0.5-0.3-0.6c-0.2-0.1-0.4-0.3-0.6-0.4
		c-0.3-0.1-0.5-0.2-0.8-0.2c-0.3-0.1-0.6-0.1-0.8-0.2c-0.3,0.2-0.5,0.4-0.6,0.6c-0.1,0.2-0.1,0.4-0.1,0.6c0,0.4,0.2,0.7,0.5,1
		c0.3,0.2,0.7,0.3,1.3,0.3c0.3,0,0.5,0,0.7-0.1s0.4-0.1,0.5-0.2c0.1-0.1,0.2-0.2,0.2-0.3S170.8,46.2,170.8,46z M167.7,40.9
		c0,0.2,0,0.4,0.1,0.5c0,0.2,0.1,0.3,0.2,0.5c0.1,0.2,0.2,0.2,0.4,0.3c0.2,0.1,0.4,0.1,0.6,0.1c0.5,0,0.8-0.1,1-0.4
		c0.2-0.3,0.3-0.6,0.3-1s-0.1-0.8-0.3-1c-0.2-0.3-0.5-0.4-1-0.4s-0.8,0.1-1,0.4C167.8,40.1,167.7,40.4,167.7,40.9z"/>
</g>
<g>
	<circle class="st0" cx="22.1" cy="22" r="21.3"/>
	<g>
		<path class="st2" d="M22.4,0c-12.2,0-22,9.8-22,22s9.8,22,22,22s22-9.8,22-22S34.6,0,22.4,0z M22.4,42.5
			C11.1,42.5,1.9,33.3,1.9,22S11.1,1.5,22.4,1.5S42.9,10.7,42.9,22S33.7,42.5,22.4,42.5z"/>
		<path class="st2" d="M6.5,10.7c0,0,0,0.1,0,0.1c0,0,0,0.1,0,0.2c0,0.1,0,0.1,0,0.2c0,0,0.1,0.1,0.1,0.1c0.2,0.2,0.4,0.5,0.8,0.8
			c0.4,0.4,0.8,0.8,1.2,1.2l-0.2,0.4l-2.5-0.3l1.8,1.8l-0.2,0.4c-0.8-0.1-1.4-0.2-1.8-0.3c-0.4-0.1-0.8-0.1-1-0.2
			c-0.1,0-0.2,0-0.2,0c0,0-0.1,0-0.2,0.1c0,0-0.1,0.1-0.1,0.1c0,0-0.1,0.1-0.1,0.1l-0.2-0.1l0.8-1.5L4.8,14c0,0.1-0.1,0.2-0.1,0.2
			c0,0,0,0.1,0,0.1c0,0,0,0.1,0,0.1c0,0,0,0,0,0c0,0,0,0,0.1,0c0,0,0,0,0.1,0c0.1,0,0.4,0.1,0.7,0.1c0.3,0.1,0.8,0.1,1.3,0.2L5.1,13
			l0.2-0.4l2.5,0.3c-0.3-0.3-0.5-0.5-0.7-0.7c-0.2-0.2-0.3-0.3-0.5-0.5c-0.1-0.1-0.2-0.1-0.2-0.2c-0.1,0-0.1-0.1-0.2-0.1
			c0,0-0.1,0-0.1,0c0,0-0.1,0-0.1,0.1c0,0-0.1,0.1-0.1,0.1c0,0.1-0.1,0.1-0.1,0.1l-0.2-0.1l0.6-1.2L6.5,10.7z M10.2,7.7l-0.1,0.1
			C10,7.7,9.8,7.7,9.7,7.7c-0.2,0-0.3,0-0.4,0.1c0,0-0.1,0.1-0.1,0.1C9.1,7.9,9,8,9,8L8.7,8.4l0.9,0.9L9.8,9
			c0.1-0.1,0.1-0.1,0.1-0.2C10,8.8,10,8.7,10,8.6c0,0,0-0.1-0.1-0.2c0-0.1-0.1-0.2-0.1-0.2l0.1-0.1l0.9,1l-0.1,0.1
			c-0.1,0-0.1-0.1-0.2-0.1C10.4,9,10.4,9,10.3,9c-0.1,0-0.1,0-0.2,0C10.1,9,10,9.1,9.9,9.1L9.7,9.4l0.7,0.7c0.1,0.1,0.1,0.1,0.2,0.1
			c0.1,0,0.1,0,0.1,0c0,0,0.1,0,0.2-0.1c0.1,0,0.1-0.1,0.2-0.2c0,0,0.1-0.1,0.1-0.1c0.1-0.1,0.1-0.1,0.1-0.1c0-0.1,0.1-0.1,0.1-0.2
			c0,0,0-0.1,0-0.1c0-0.1,0-0.2-0.1-0.4c0-0.2-0.1-0.3-0.1-0.4l0.1-0.1L12,9.3l-2.1,2.1l-0.1-0.1c0,0,0.1-0.1,0.1-0.1
			c0-0.1,0.1-0.1,0.1-0.1c0-0.1,0-0.1,0-0.1c0,0,0-0.1-0.1-0.1L8.3,9.1c0,0-0.1-0.1-0.1-0.1c0,0-0.1,0-0.2,0c0,0-0.1,0-0.2,0.1
			c-0.1,0-0.1,0.1-0.1,0.1L7.6,9.1l2-2L10.2,7.7z M14.2,7.9c-0.2,0.1-0.3,0.2-0.5,0.2c-0.2,0-0.3,0.1-0.5,0.1l-0.1,0.2l-0.2,0.1
			l-0.6-1l0.2-0.1c0.1,0.1,0.2,0.1,0.3,0.2c0.1,0.1,0.2,0.1,0.4,0.2c0.1,0,0.3,0.1,0.4,0.1c0.1,0,0.3,0,0.4-0.1
			c0.2-0.1,0.3-0.2,0.3-0.4c0-0.1,0-0.3-0.1-0.4c-0.1-0.1-0.2-0.2-0.3-0.2c-0.1,0-0.3,0-0.5,0c-0.1,0-0.2,0.1-0.4,0.1
			c-0.1,0-0.2,0-0.3,0.1c-0.2,0-0.4,0-0.6-0.1c-0.2-0.1-0.3-0.2-0.4-0.4c-0.1-0.1-0.1-0.2-0.1-0.4c0-0.1,0-0.3,0-0.4
			c0-0.1,0.1-0.2,0.2-0.4c0.1-0.1,0.2-0.2,0.4-0.3c0.2-0.1,0.3-0.2,0.5-0.2c0.2,0,0.3-0.1,0.4-0.1l0.1-0.2l0.2-0.1l0.6,0.9L14,5.5
			c-0.1-0.1-0.2-0.2-0.3-0.2c-0.1-0.1-0.2-0.1-0.3-0.2c-0.1,0-0.2-0.1-0.3-0.1c-0.1,0-0.2,0-0.3,0.1c-0.1,0.1-0.2,0.2-0.3,0.3
			c0,0.1,0,0.3,0,0.4C12.5,6,12.6,6,12.7,6.1c0.1,0,0.3,0,0.5,0c0.1,0,0.2,0,0.4-0.1c0.1,0,0.2,0,0.3-0.1c0.2,0,0.4,0,0.6,0
			c0.2,0.1,0.3,0.2,0.4,0.4C15,6.5,15,6.6,15,6.7c0,0.1,0,0.3-0.1,0.4c-0.1,0.1-0.1,0.3-0.2,0.4C14.6,7.7,14.4,7.8,14.2,7.9z
			 M18.7,3.6l-0.2,0c-0.1-0.1-0.2-0.2-0.3-0.4c-0.1-0.1-0.3-0.2-0.3-0.2c0,0-0.1,0-0.2,0c-0.1,0-0.1,0-0.2,0l-0.1,0l0.7,2.4
			c0,0.1,0,0.1,0.1,0.1c0,0,0.1,0.1,0.1,0.1c0,0,0.1,0,0.2,0c0.1,0,0.1,0,0.2,0l0,0.2L17,6.5L17,6.3c0,0,0.1,0,0.2-0.1
			c0.1,0,0.1-0.1,0.1-0.1c0,0,0.1-0.1,0.1-0.1c0,0,0-0.1,0-0.1l-0.7-2.4l-0.1,0c0,0-0.1,0-0.2,0.1c-0.1,0-0.1,0-0.2,0.1
			c-0.1,0-0.1,0.1-0.2,0.3c-0.1,0.2-0.1,0.3-0.1,0.5l-0.2,0l-0.3-0.9l3-0.9L18.7,3.6z M23.3,4.1c0.1,0.1,0.2,0.1,0.2,0.2
			c0.1,0.1,0.1,0.2,0.1,0.4c0,0.2,0,0.3-0.1,0.4c-0.1,0.1-0.2,0.2-0.3,0.3c-0.1,0.1-0.3,0.1-0.5,0.2c-0.2,0-0.4,0.1-0.6,0.1l-1.7,0
			l0-0.2c0,0,0.1,0,0.2,0c0.1,0,0.1,0,0.1,0c0.1,0,0.1-0.1,0.1-0.1c0,0,0-0.1,0-0.1l-0.1-2.3c0-0.1,0-0.1,0-0.1c0,0-0.1-0.1-0.1-0.1
			c0,0-0.1,0-0.2,0c-0.1,0-0.1,0-0.2,0l0-0.2l1.7,0c0.4,0,0.8,0,1,0.2c0.2,0.1,0.3,0.3,0.3,0.5c0,0.1,0,0.2-0.1,0.3
			c0,0.1-0.1,0.2-0.2,0.2c-0.1,0.1-0.2,0.1-0.3,0.2c-0.1,0-0.2,0.1-0.3,0.1l0,0c0.1,0,0.2,0,0.4,0.1C23.1,4,23.2,4,23.3,4.1z
			 M22.5,3.1c0-0.2-0.1-0.3-0.2-0.4c-0.1-0.1-0.3-0.1-0.5-0.1c0,0-0.1,0-0.1,0c0,0-0.1,0-0.1,0l0,1.2l0.1,0c0.2,0,0.4-0.1,0.5-0.2
			C22.5,3.5,22.5,3.3,22.5,3.1z M22.7,4.7c0-0.2-0.1-0.4-0.2-0.5C22.4,4,22.2,4,21.9,4c0,0-0.1,0-0.1,0c0,0-0.1,0-0.1,0l0,1.2
			c0,0.1,0.1,0.1,0.1,0.1c0.1,0,0.2,0.1,0.3,0.1c0.2,0,0.3-0.1,0.4-0.2C22.7,5.1,22.7,4.9,22.7,4.7z M28.5,6.6l-1.2-0.3
			c-0.1-0.4-0.2-0.7-0.3-0.9c-0.1-0.2-0.2-0.5-0.3-0.8l-0.1,0l-0.2,0.9c0,0.1,0,0.1,0,0.1c0,0,0,0.1,0.1,0.1c0,0,0.1,0,0.1,0.1
			c0.1,0,0.1,0,0.1,0.1l0,0.2l-1.7-0.4l0-0.2c0,0,0.1,0,0.2,0c0.1,0,0.1,0,0.2,0c0.1,0,0.1,0,0.1-0.1c0,0,0-0.1,0.1-0.1L26,3.1
			c0-0.1,0-0.1,0-0.1c0,0,0-0.1-0.1-0.1c0,0-0.1-0.1-0.2-0.1c-0.1,0-0.1-0.1-0.1-0.1l0-0.2L27.5,3c0.4,0.1,0.7,0.2,0.8,0.4
			c0.2,0.2,0.2,0.4,0.2,0.6c-0.1,0.2-0.2,0.4-0.3,0.5c-0.2,0.1-0.4,0.2-0.7,0.2c0.1,0.2,0.1,0.3,0.2,0.5c0.1,0.2,0.2,0.4,0.3,0.6
			c0,0.1,0.1,0.2,0.1,0.3c0.1,0.1,0.1,0.2,0.2,0.2c0,0,0.1,0,0.1,0.1c0,0,0.1,0,0.1,0L28.5,6.6 M27.6,3.9c0.1-0.2,0-0.4-0.1-0.5
			c-0.1-0.1-0.2-0.2-0.5-0.3l-0.2,0l-0.3,1.3l0.2,0c0.2,0.1,0.4,0,0.5,0C27.4,4.3,27.5,4.1,27.6,3.9z M33.3,6
			c0.1,0.2,0.1,0.4,0.1,0.6c0,0.2-0.1,0.5-0.2,0.7c-0.1,0.2-0.3,0.4-0.4,0.5c-0.2,0.1-0.4,0.2-0.6,0.3c-0.2,0.1-0.4,0.1-0.7,0
			c-0.2,0-0.5-0.1-0.7-0.3c-0.2-0.1-0.4-0.3-0.5-0.4C30.1,7.3,30,7.1,30,6.9c-0.1-0.2-0.1-0.4-0.1-0.6c0-0.2,0.1-0.4,0.2-0.7
			c0.1-0.2,0.3-0.4,0.5-0.5c0.2-0.1,0.4-0.2,0.6-0.3c0.2,0,0.4-0.1,0.7,0c0.2,0,0.4,0.1,0.6,0.2c0.2,0.1,0.4,0.3,0.5,0.4
			C33.2,5.6,33.3,5.8,33.3,6z M31.7,7.7c0.1-0.1,0.3-0.2,0.4-0.3c0.1-0.1,0.2-0.3,0.3-0.5c0.1-0.2,0.2-0.3,0.2-0.5
			c0.1-0.2,0.1-0.3,0.1-0.5c0-0.2,0-0.3-0.1-0.4c0-0.1-0.1-0.2-0.3-0.3c-0.2-0.1-0.5-0.1-0.7,0c-0.3,0.2-0.5,0.4-0.7,0.8
			c-0.1,0.2-0.2,0.3-0.3,0.5c-0.1,0.2-0.1,0.3-0.1,0.5c0,0.2,0,0.3,0.1,0.4c0.1,0.1,0.1,0.2,0.3,0.3c0.1,0.1,0.3,0.1,0.4,0.1
			C31.4,7.8,31.5,7.8,31.7,7.7z M37.4,9.8c0,0.2,0,0.4-0.1,0.6c-0.1,0.2-0.2,0.4-0.4,0.6c-0.2,0.2-0.4,0.3-0.6,0.4
			c-0.2,0.1-0.4,0.1-0.6,0.1c-0.2,0-0.4-0.1-0.6-0.2c-0.2-0.1-0.4-0.2-0.6-0.5c-0.2-0.2-0.3-0.4-0.4-0.6c-0.1-0.2-0.1-0.4-0.1-0.6
			c0-0.2,0-0.4,0.1-0.6c0.1-0.2,0.2-0.4,0.4-0.6c0.2-0.2,0.4-0.3,0.6-0.4C35.3,8,35.5,8,35.7,8c0.2,0,0.4,0.1,0.6,0.2
			c0.2,0.1,0.4,0.2,0.6,0.4c0.2,0.2,0.3,0.4,0.4,0.6C37.4,9.3,37.4,9.6,37.4,9.8z M35.3,10.9c0.1,0,0.3-0.1,0.4-0.2
			c0.1-0.1,0.3-0.2,0.5-0.4c0.1-0.1,0.3-0.3,0.4-0.4c0.1-0.1,0.2-0.3,0.3-0.4c0.1-0.1,0.1-0.3,0.1-0.4c0-0.1-0.1-0.3-0.2-0.4
			c-0.2-0.2-0.4-0.3-0.7-0.2c-0.3,0.1-0.6,0.3-1,0.6c-0.1,0.1-0.3,0.3-0.4,0.4c-0.1,0.1-0.2,0.3-0.2,0.4c-0.1,0.1-0.1,0.3-0.1,0.4
			c0,0.1,0.1,0.2,0.2,0.4c0.1,0.1,0.2,0.2,0.3,0.2C35,11,35.2,10.9,35.3,10.9z M38,16.5l-0.6-1.1c0.2-0.3,0.3-0.6,0.4-0.8
			c0.1-0.2,0.2-0.5,0.4-0.9l-0.1-0.1L37.4,14c0,0-0.1,0.1-0.1,0.1c0,0,0,0.1,0,0.1c0,0,0,0.1,0,0.1c0,0.1,0,0.1,0,0.2l-0.2,0.1
			l-0.8-1.5l0.2-0.1c0,0,0.1,0.1,0.1,0.1c0,0.1,0.1,0.1,0.1,0.1c0,0,0.1,0.1,0.1,0.1c0,0,0.1,0,0.1,0l2-1c0,0,0.1-0.1,0.1-0.1
			c0,0,0-0.1,0-0.1c0-0.1,0-0.1,0-0.2c0-0.1,0-0.1,0-0.2l0.2-0.1l0.8,1.6l-0.2,0.1c0,0-0.1-0.1-0.1-0.1c0-0.1-0.1-0.1-0.1-0.1
			c0,0-0.1-0.1-0.1-0.1c0,0-0.1,0-0.1,0l-1,0.5l0,0.1c0.1,0.1,0.3,0.1,0.5,0.2c0.2,0.1,0.4,0.1,0.5,0.2c0.2,0,0.3,0.1,0.4,0.1
			c0.1,0,0.2,0,0.2,0c0,0,0,0,0-0.1c0-0.1,0-0.1-0.1-0.2l0.2-0.1l0.6,1.3l-0.2,0.1c-0.1-0.1-0.2-0.3-0.3-0.3
			c-0.1-0.1-0.2-0.2-0.3-0.2c-0.2-0.1-0.4-0.1-0.5-0.2c-0.1,0-0.3-0.1-0.5-0.2c-0.1,0.2-0.2,0.5-0.3,0.8c-0.1,0.3-0.3,0.6-0.4,0.9
			c0,0.1-0.1,0.2-0.1,0.2c0,0.1,0,0.2,0,0.3c0,0,0,0.1,0,0.1c0,0,0,0.1,0,0.1L38,16.5z"/>
		<path class="st3" d="M27.6,27.6l0.4,0.2l-1,2.2l-0.4-0.2L27.6,27.6z M27.3,26.5l0.4,0.2l-1,2.2l-0.4-0.2L27.3,26.5z M28.9,21.8
			L28.9,21.8c-3,0.6-5.6,2.2-7.4,4.6l-0.3,0.4l0.3,0.3c0.7,0.6,1.2,1.3,1.6,2.1c0.5,1,0.6,2,0.6,3l0,0.4l0.2-0.1
			c0.7-0.3,1.5-0.4,2.2-0.4c0.8,0,1.6,0.2,2.4,0.5l0.3,0.1v0c0-0.2-0.2-1.5-0.2-1.5c0,0,0.2-0.3,0.4-0.6c0-0.1,0.1-0.2,0.1-0.2
			c0.1-0.1,0.1-0.2,0.2-0.3c0.1-0.2,0.2-0.4,0.2-0.4c0-0.1-0.2-0.9-0.2-0.9s1.5-0.4,1.5-0.4c0.1-1.1-0.3-2.7-0.8-3.6l-0.7,0
			l-1.7,0.9l-1.1-1.3l2.8,0.2l0.4,0C29.8,23.2,29,22.1,28.9,21.8L28.9,21.8z M28,18l-0.4,0.1c-5.1,1.3-9,6-9,11.6
			c0,0.8,0.1,1.5,0.2,2.3l0.1,0.4l0-0.2c0-0.5,0-1,0.1-1.5c0.7-5.3,5-9.2,10-9.7l0,0l0-0.1c0.4-1,0.2-2.1-0.9-2.7L28,18z M22.5,8.8
			c4.9,0,9.6,2.8,11.8,7.6c3.1,6.6,0.3,14.4-6.3,17.5c-4.7,2.2-10.1,1.4-13.9-1.7l-0.5-0.4l0.1-0.1c0.8-1.4,2.4-2.9,4.2-3.5l0.1,0
			l0-0.3l0-0.2l-0.2,0c-2,0.2-4,1.4-5.2,3l0,0.1l-0.3-0.4c-0.7-0.8-1.3-1.8-1.8-2.8c0,0,0-0.1,0-0.1c1.4-1.6,4.9-3.3,8.2-2.9l0.2,0
			l0.2-0.4l0.1-0.2l-0.3-0.1c-2.9-0.9-6.7-0.3-9.1,1.6c-0.3-1-0.4-2-0.5-3c3.6-2.2,8-2.9,11.8-1.7l0.2,0.1l0.7-0.7l0.3-0.3l-0.3-0.2
			c-3.9-2.2-8.6-2-12.4-0.5c0.2-0.8,0.4-1.6,0.8-2.4c5.2-2.3,11.1-2.2,15.7,0.8l0.1,0.1l0.1,0c0.3-0.1,0.6-0.2,1-0.3l0.3-0.1
			l-0.7-0.7c-4.2-3.7-9.5-4.9-13.8-3.8c1.1-1.1,2.4-2.1,3.8-2.7C18.7,9.2,20.6,8.8,22.5,8.8z"/>
		<path class="st2" d="M22.4,6.6C13.9,6.6,7,13.5,7,22c0,8.5,6.9,15.4,15.4,15.4c8.5,0,15.4-6.9,15.4-15.4
			C37.8,13.5,30.9,6.6,22.4,6.6z M22.4,36.3c-7.9,0-14.3-6.4-14.3-14.3S14.5,7.7,22.4,7.7S36.8,14.1,36.8,22S30.3,36.3,22.4,36.3z"
			/>
		<path class="st3" d="M41.1,20.9l0.8,0.4l-2,4.3l-0.8-0.4L41.1,20.9z M40.4,18.8l0.8,0.4l-2,4.3L38.5,23L40.4,18.8z"/>
		<path class="st3" d="M5.5,20.9l0.8,0.4l-2,4.3l-0.8-0.4L5.5,20.9z M4.9,18.8l0.8,0.4l-2,4.3L2.9,23L4.9,18.8z"/>
		<g>
			<path class="st2" d="M6.9,29.4l-0.1-0.1C6.9,29.2,7,29.1,7,29c0.1-0.1,0.1-0.2,0.1-0.3c0,0,0-0.1,0-0.2c0-0.1,0-0.1-0.1-0.2
				l-0.2-0.4l-1,0.4l0.1,0.3C6,28.7,6,28.7,6,28.8c0,0,0.1,0.1,0.2,0.1c0,0,0.1,0,0.2,0c0.1,0,0.2,0,0.2,0l0.1,0.1l-1.1,0.4
				l-0.1-0.1c0,0,0.1-0.1,0.2-0.1c0.1-0.1,0.1-0.1,0.1-0.2c0-0.1,0-0.1,0-0.2c0-0.1,0-0.1-0.1-0.2l-0.1-0.3l-0.8,0.3
				c-0.1,0-0.1,0.1-0.2,0.1c0,0-0.1,0.1-0.1,0.1c0,0,0,0.1,0,0.1c0,0.1,0,0.1,0.1,0.2c0,0,0,0.1,0.1,0.2c0,0.1,0.1,0.1,0.1,0.2
				c0,0.1,0.1,0.1,0.1,0.1c0,0,0.1,0.1,0.1,0.1c0.1,0,0.2,0.1,0.4,0.1c0.2,0,0.3,0,0.3,0l0.1,0.1l-0.8,0.3l-1-2.5l0.1-0.1
				c0,0,0,0.1,0.1,0.1c0,0.1,0.1,0.1,0.1,0.1c0,0,0.1,0.1,0.1,0.1c0,0,0.1,0,0.1,0l1.9-0.7c0,0,0.1,0,0.1-0.1c0,0,0-0.1,0-0.1
				c0,0,0-0.1,0-0.2c0-0.1,0-0.1,0-0.1l0.1-0.1l0.9,2.4L6.9,29.4z"/>
			<path class="st2" d="M9.7,32.8c0,0-0.1-0.1-0.1-0.1c0-0.1-0.1-0.1-0.2-0.1c-0.1,0-0.1,0-0.2,0c-0.1,0-0.2,0.1-0.3,0.2L7.2,34
				L7,33.7L7.8,31l-1.1,0.8c-0.1,0.1-0.2,0.2-0.3,0.2c-0.1,0.1-0.1,0.1-0.1,0.2c0,0,0,0.1,0,0.2c0,0.1,0,0.1,0.1,0.2l-0.1,0.1
				l-0.7-1l0.1-0.1c0,0,0.1,0.1,0.1,0.1c0.1,0,0.1,0.1,0.2,0.1c0.1,0,0.1,0,0.2,0c0.1,0,0.2-0.1,0.3-0.2l1.1-0.8
				c0.1,0,0.1-0.1,0.1-0.1c0-0.1,0.1-0.1,0.1-0.2c0-0.1,0-0.1,0-0.2c0-0.1,0-0.1-0.1-0.2L7.9,30l0.6,0.9l-0.7,2.4l0.9-0.6
				c0.1-0.1,0.2-0.2,0.3-0.2c0.1-0.1,0.1-0.1,0.1-0.2c0,0,0-0.1,0-0.2c0-0.1,0-0.1-0.1-0.2l0.1-0.1l0.7,1L9.7,32.8z"/>
			<path class="st2" d="M11.7,35.5l-0.1-0.1c0-0.1,0.1-0.2,0.1-0.4c0-0.1,0-0.3-0.1-0.3c0,0-0.1-0.1-0.1-0.1
				c-0.1-0.1-0.1-0.1-0.1-0.1L11,34.1L10.3,35l0.2,0.2c0.1,0,0.1,0.1,0.2,0.1c0.1,0,0.1,0,0.2,0c0,0,0.1,0,0.2-0.1s0.1-0.1,0.2-0.1
				l0.1,0.1l-0.8,0.9L10.4,36c0,0,0.1-0.1,0.1-0.2c0-0.1,0.1-0.1,0.1-0.2c0-0.1,0-0.1,0-0.2c0-0.1-0.1-0.1-0.1-0.2l-0.2-0.2
				l-0.6,0.6c-0.1,0.1-0.1,0.1-0.1,0.2c0,0,0,0.1,0,0.1c0,0,0,0.1,0.1,0.1c0,0,0.1,0.1,0.2,0.2c0,0,0.1,0.1,0.1,0.1
				c0,0,0.1,0.1,0.1,0.1c0,0,0.1,0.1,0.1,0.1c0,0,0.1,0,0.1,0c0.1,0,0.2,0,0.4-0.1c0.2,0,0.3-0.1,0.3-0.1l0.1,0.1l-0.6,0.6l-2-1.8
				l0.1-0.1c0,0,0.1,0.1,0.1,0.1c0.1,0,0.1,0.1,0.1,0.1c0.1,0,0.1,0,0.1,0c0,0,0.1,0,0.1-0.1l1.4-1.5c0,0,0.1-0.1,0.1-0.1
				c0,0,0-0.1,0-0.1c0,0,0-0.1-0.1-0.1c0-0.1-0.1-0.1-0.1-0.1l0.1-0.1l1.9,1.7L11.7,35.5z"/>
			<path class="st2" d="M14.3,39.7l-1-0.5c0-0.3,0-0.6-0.1-0.8c0-0.2-0.1-0.5-0.1-0.8l-0.1-0.1l-0.4,0.8c0,0,0,0.1,0,0.1
				c0,0,0,0.1,0,0.1c0,0,0,0.1,0.1,0.1c0,0,0.1,0.1,0.1,0.1l-0.1,0.1L11.5,38l0.1-0.1c0,0,0.1,0,0.1,0.1c0.1,0,0.1,0,0.1,0
				c0.1,0,0.1,0,0.1,0c0,0,0.1-0.1,0.1-0.1l1-1.7c0,0,0-0.1,0-0.1c0,0,0-0.1-0.1-0.1c0,0-0.1-0.1-0.1-0.1c0,0-0.1-0.1-0.1-0.1
				l0.1-0.1l1.4,0.8c0.3,0.2,0.5,0.4,0.6,0.6c0.1,0.2,0.1,0.4,0,0.6c-0.1,0.2-0.2,0.3-0.4,0.3c-0.2,0-0.4,0-0.6,0
				c0,0.1,0,0.3,0.1,0.5c0,0.2,0.1,0.4,0.1,0.6c0,0.1,0,0.2,0.1,0.3c0,0.1,0.1,0.2,0.1,0.2c0,0,0.1,0.1,0.1,0.1c0,0,0.1,0,0.1,0.1
				L14.3,39.7z M14.2,37.1c0.1-0.2,0.1-0.3,0.1-0.4c0-0.1-0.2-0.2-0.3-0.3l-0.1-0.1l-0.6,1l0.1,0.1c0.2,0.1,0.3,0.1,0.5,0.1
				C14,37.4,14.1,37.3,14.2,37.1z"/>
			<path class="st2" d="M18.8,39.9c0,0-0.1,0-0.1,0c0,0-0.1,0-0.1,0c-0.1,0-0.1,0-0.1,0.1c0,0,0,0.1-0.1,0.1l-0.1,0.3
				c0,0.1,0,0.1,0,0.2c0,0,0,0.1,0,0.1c-0.2,0-0.4,0.1-0.6,0c-0.3,0-0.5,0-0.7-0.1c-0.2-0.1-0.4-0.1-0.5-0.3
				c-0.2-0.1-0.3-0.2-0.4-0.4c-0.1-0.2-0.2-0.3-0.2-0.5c0-0.2,0-0.4,0.1-0.6c0.1-0.2,0.2-0.4,0.3-0.6c0.1-0.2,0.3-0.3,0.4-0.4
				c0.2-0.1,0.4-0.1,0.6-0.2c0.2,0,0.4,0,0.7,0.1c0.2,0,0.3,0.1,0.4,0.2c0.1,0.1,0.2,0.2,0.3,0.2l0.2-0.1l0.2,0.1l-0.3,1l-0.2-0.1
				c0-0.3-0.1-0.6-0.2-0.8c-0.1-0.2-0.2-0.3-0.5-0.4c-0.2-0.1-0.5,0-0.7,0.2c-0.2,0.2-0.4,0.5-0.5,0.8c-0.1,0.4-0.1,0.7-0.1,1
				c0.1,0.3,0.2,0.4,0.5,0.5c0.1,0,0.2,0,0.3,0c0.1,0,0.2,0,0.2-0.1l0.2-0.6c0,0,0-0.1,0-0.1c0,0,0-0.1-0.1-0.1c0,0-0.1-0.1-0.1-0.1
				c-0.1,0-0.1-0.1-0.1-0.1l0-0.2l1.4,0.4L18.8,39.9z"/>
			<path class="st2" d="M22.9,38.7c0,0-0.1,0-0.1,0c0,0-0.1,0-0.1,0c-0.1,0-0.1,0.1-0.2,0.1c0,0-0.1,0.1-0.1,0.2
				c-0.1,0.1-0.2,0.3-0.3,0.4c-0.1,0.1-0.2,0.3-0.3,0.5c-0.1,0.1-0.1,0.2-0.2,0.3c0,0.1,0,0.2,0,0.3l0,0.4c0,0,0,0.1,0,0.1
				c0,0,0,0.1,0.1,0.1c0,0,0.1,0,0.1,0c0.1,0,0.1,0,0.2,0l0,0.2l-1.6-0.1l0-0.2c0,0,0.1,0,0.2,0c0.1,0,0.1,0,0.1,0
				c0.1,0,0.1,0,0.1-0.1c0,0,0-0.1,0-0.1l0-0.5c0,0,0-0.1,0-0.1c0,0,0-0.1,0-0.1c0,0,0-0.1,0-0.1c0,0,0-0.1-0.1-0.2
				c-0.1-0.2-0.2-0.4-0.3-0.5c-0.1-0.2-0.2-0.3-0.2-0.5c0-0.1-0.1-0.1-0.1-0.2c0,0-0.1-0.1-0.1-0.1c0,0-0.1,0-0.1-0.1
				c-0.1,0-0.1,0-0.1,0l0-0.2l1.6,0.1l0,0.2c-0.1,0-0.3,0-0.3,0c-0.1,0-0.1,0-0.1,0.1c0,0,0,0,0,0.1c0,0,0,0.1,0.1,0.2
				c0,0.1,0.1,0.2,0.2,0.4c0.1,0.2,0.2,0.3,0.3,0.6c0.3-0.4,0.5-0.7,0.6-0.8c0.1-0.2,0.2-0.2,0.2-0.3c0,0,0-0.1-0.1-0.1
				c-0.1,0-0.1,0-0.3-0.1l0-0.2l1.1,0.1L22.9,38.7z"/>
			<path class="st2" d="M28.7,39.2c0,0-0.1,0-0.1,0c0,0-0.1,0-0.1,0.1c0,0-0.1,0.1-0.1,0.1c0,0,0,0.1,0,0.1l0.1,0.3
				c0,0.1,0,0.1,0,0.2c0,0,0,0.1,0,0.1c-0.1,0.1-0.3,0.2-0.5,0.4c-0.2,0.1-0.5,0.2-0.7,0.3c-0.2,0.1-0.4,0.1-0.6,0.1
				c-0.2,0-0.4-0.1-0.5-0.2c-0.2-0.1-0.3-0.2-0.4-0.4c-0.1-0.2-0.2-0.4-0.3-0.6c-0.1-0.2-0.1-0.4-0.1-0.6c0-0.2,0.1-0.4,0.2-0.6
				c0.1-0.2,0.2-0.3,0.4-0.4c0.2-0.1,0.4-0.2,0.6-0.3c0.2,0,0.3-0.1,0.5-0.1c0.1,0,0.3,0,0.4,0l0.1-0.1l0.2,0l0.3,1l-0.2,0
				c-0.2-0.3-0.4-0.5-0.5-0.6C27.1,38,26.9,38,26.7,38c-0.2,0.1-0.4,0.2-0.5,0.5c-0.1,0.3-0.1,0.6,0,1c0.1,0.4,0.3,0.7,0.5,0.9
				c0.2,0.2,0.4,0.3,0.7,0.2c0.1,0,0.2-0.1,0.3-0.1c0.1-0.1,0.1-0.1,0.2-0.2l-0.1-0.6c0,0,0-0.1-0.1-0.1c0,0-0.1,0-0.1-0.1
				c0,0-0.1,0-0.2,0c-0.1,0-0.1,0-0.2,0l0-0.2l1.4-0.4L28.7,39.2z"/>
			<path class="st2" d="M33.1,38.2l-1,0.5c-0.3-0.2-0.6-0.3-0.7-0.4c-0.2-0.1-0.4-0.2-0.7-0.3l-0.1,0.1l0.4,0.8c0,0,0.1,0.1,0.1,0.1
				c0,0,0.1,0,0.1,0c0,0,0.1,0,0.1,0c0.1,0,0.1,0,0.1,0l0.1,0.1l-1.3,0.7l-0.1-0.1c0,0,0.1-0.1,0.1-0.1c0.1,0,0.1-0.1,0.1-0.1
				c0,0,0.1-0.1,0.1-0.1c0,0,0-0.1,0-0.1l-0.9-1.8c0,0,0-0.1-0.1-0.1c0,0-0.1,0-0.1,0c0,0-0.1,0-0.2,0c-0.1,0-0.1,0-0.1,0l-0.1-0.1
				l1.4-0.8c0.3-0.2,0.6-0.2,0.8-0.2c0.2,0,0.4,0.1,0.5,0.3c0.1,0.2,0.1,0.3,0.1,0.5c0,0.2-0.2,0.3-0.3,0.5c0.1,0.1,0.3,0.1,0.5,0.2
				c0.2,0.1,0.4,0.2,0.6,0.2c0.1,0,0.1,0.1,0.2,0.1c0.1,0,0.2,0,0.2,0c0,0,0.1,0,0.1,0c0,0,0.1,0,0.1,0L33.1,38.2z M30.9,37
				c-0.1-0.2-0.2-0.3-0.3-0.3c-0.1,0-0.3,0-0.5,0.1l-0.1,0.1l0.6,1.1l0.1-0.1c0.2-0.1,0.3-0.2,0.3-0.4C31,37.4,31,37.2,30.9,37z"/>
			<path class="st2" d="M34.3,33.9c0.2,0,0.4,0,0.6,0.1c0.2,0.1,0.4,0.2,0.5,0.4c0.1,0.2,0.2,0.3,0.3,0.5c0.1,0.2,0.1,0.4,0.1,0.6
				c0,0.2-0.1,0.4-0.1,0.6c-0.1,0.2-0.2,0.4-0.4,0.5c-0.2,0.1-0.3,0.2-0.5,0.3C34.5,37,34.3,37,34.1,37c-0.2,0-0.4,0-0.6-0.1
				c-0.2-0.1-0.3-0.2-0.5-0.4c-0.2-0.2-0.3-0.4-0.3-0.6c-0.1-0.2-0.1-0.4-0.1-0.6c0-0.2,0.1-0.4,0.2-0.6c0.1-0.2,0.2-0.3,0.4-0.5
				c0.2-0.1,0.3-0.2,0.5-0.3C33.9,33.9,34.1,33.9,34.3,33.9z M35.3,35.8c0-0.1-0.1-0.3-0.2-0.4c-0.1-0.1-0.2-0.3-0.3-0.4
				c-0.1-0.1-0.2-0.2-0.3-0.3c-0.1-0.1-0.2-0.2-0.4-0.2c-0.1-0.1-0.2-0.1-0.4-0.1s-0.2,0.1-0.3,0.2c-0.2,0.2-0.2,0.4-0.2,0.6
				c0.1,0.3,0.2,0.5,0.5,0.9c0.1,0.1,0.2,0.3,0.4,0.4c0.1,0.1,0.2,0.2,0.4,0.2c0.1,0,0.2,0.1,0.4,0.1c0.1,0,0.2-0.1,0.3-0.2
				c0.1-0.1,0.2-0.2,0.2-0.3C35.3,36,35.3,35.9,35.3,35.8z"/>
			<path class="st2" d="M37,30.2c0,0,0,0.1-0.1,0.2c0,0.1,0,0.1,0,0.2c0,0.1,0,0.1,0.1,0.2c0.1,0.1,0.2,0.2,0.3,0.3l0.9,0.6
				c0.3,0.2,0.4,0.4,0.4,0.7c0,0.3,0,0.6-0.2,0.9c-0.2,0.3-0.5,0.5-0.8,0.6c-0.3,0.1-0.6,0-0.8-0.2l-1.2-0.8c0,0-0.1,0-0.1,0
				c0,0-0.1,0-0.1,0c0,0-0.1,0-0.1,0.1c0,0-0.1,0.1-0.1,0.1L35,32.8l0.9-1.2l0.1,0.1c0,0,0,0.1-0.1,0.1c0,0,0,0.1-0.1,0.1
				c0,0.1,0,0.1,0,0.1c0,0,0.1,0.1,0.1,0.1l1.2,0.8c0.2,0.2,0.4,0.2,0.6,0.2c0.2,0,0.3-0.1,0.5-0.3c0.1-0.2,0.2-0.4,0.1-0.6
				c0-0.2-0.2-0.4-0.4-0.5l-0.8-0.6C37,31.1,36.9,31,36.8,31c-0.1,0-0.2,0-0.2,0c0,0-0.1,0-0.2,0.1c-0.1,0.1-0.1,0.1-0.1,0.1
				l-0.1-0.1l0.7-1L37,30.2z"/>
			<path class="st2" d="M38.8,27.3c0.1,0.1,0.3,0.1,0.3,0.2c0.1,0.1,0.1,0.2,0.2,0.4c0,0.1,0,0.3,0,0.4c0,0.2-0.1,0.3-0.2,0.5
				L39.1,29l0.7,0.3c0,0,0.1,0,0.1,0c0,0,0.1,0,0.1-0.1c0,0,0-0.1,0.1-0.1c0-0.1,0.1-0.1,0.1-0.1l0.1,0.1l-0.6,1.4l-0.1-0.1
				c0,0,0-0.1,0-0.1s0-0.1,0-0.1c0-0.1,0-0.1,0-0.1c0,0-0.1-0.1-0.1-0.1l-1.9-0.8c0,0-0.1,0-0.1,0c0,0-0.1,0-0.1,0.1
				c0,0-0.1,0.1-0.1,0.1c0,0.1-0.1,0.1-0.1,0.1l-0.1-0.1l0.6-1.5c0.1-0.3,0.3-0.6,0.5-0.7C38.4,27.2,38.6,27.2,38.8,27.3z M38.6,28
				c-0.2-0.1-0.4-0.1-0.5-0.1c-0.1,0-0.2,0.2-0.3,0.4l-0.1,0.2l1.2,0.5l0-0.1c0.1-0.2,0.1-0.4,0-0.5C38.9,28.2,38.8,28.1,38.6,28z"
				/>
		</g>
	</g>
</g>
</svg>
