<?xml version="1.0" encoding="UTF-8"?>
<svg id="Layer_1" xmlns="http://www.w3.org/2000/svg" version="1.1" viewBox="0 0 549.08 160.51">
  <!-- Generator: Adobe Illustrator 29.0.1, SVG Export Plug-In . SVG Version: 2.1.0 Build 192)  -->
  <defs>
    <style>
      .st0 {
        fill: #ed1c24;
      }

      .st1 {
        fill: #003750;
      }
    </style>
  </defs>
  <g id="Family">
    <polygon class="st1" points="30.73 90.56 30.73 14.06 8.64 52.31 30.73 90.56"/>
    <polygon class="st1" points="35.38 11.57 101.63 49.82 79.55 11.57 35.38 11.57"/>
    <polygon class="st1" points="57.46 54.97 35.38 93.22 79.54 93.22 101.63 54.97 57.46 54.97"/>
    <polygon class="st0" points="36.55 19.23 36.55 79.09 53.83 49.16 88.39 49.16 36.55 19.23"/>
    <g>
      <path class="st1" d="M113.36,12.23h9.22l6.81,24.79c.71,2.6,1.49,5.84,1.56,6.17.06-.32.71-3.44,1.43-6.17l6.3-24.79h9.41l6.23,24.79c.65,2.66,1.3,5.84,1.36,6.17.13-.32.84-3.5,1.62-6.17l7.01-24.79h9.02l-12.53,42.12h-9.61l-6.43-23.88c-.78-2.92-1.3-6.88-1.43-7.33-.13.45-.65,4.41-1.43,7.33l-6.43,23.88h-9.67l-12.46-42.12h.02Z"/>
      <path class="st1" d="M171.78,38.06c0-9.35,7.27-16.87,16.81-16.87,8.83,0,15.77,7.53,15.77,16.74,0,1.56-.19,3.12-.19,3.12h-23.56c1.04,4.48,4.74,6.62,9.02,6.62,3.12,0,6.36-.91,8.76-2.53l3.25,6.23c-3.63,2.4-7.85,3.57-12.07,3.57-9.48,0-17.78-6.17-17.78-16.87h-.01ZM196.18,35.27c-.65-4.09-3.89-6.81-7.85-6.81s-7.01,2.73-7.85,6.81h15.71,0Z"/>
      <path class="st1" d="M207.09,50.52l3.12-6.68c2.21,1.69,5.26,3.44,10.12,3.44,2.01,0,5.32-.78,5.32-2.73s-2.79-2.4-5.58-3.18c-6.43-1.69-11.68-3.83-11.68-10.06,0-6.62,6.49-10.12,12.59-10.12,5.32,0,8.7,1.3,12.07,3.25l-2.92,6.49c-3.18-1.56-6.17-2.27-9.02-2.27-2.01,0-3.89.91-3.89,2.27,0,1.82,2.73,2.4,5.71,3.05,5.52,1.3,11.55,3.7,11.55,10.32,0,7.98-8.11,10.64-14.15,10.64-6.94,0-11.42-2.73-13.24-4.41h0Z"/>
      <path class="st1" d="M241.49,43.84v-14.99h-4.74v-7.01h4.74v-6.23l8.7-1.95v8.18h8.96v7.01h-8.96v14.86c0,2.79,1.36,3.7,2.92,3.7,2.08,0,3.89-1.17,4.15-1.36l2.47,6.43c-1.95,1.3-4.8,2.47-8.24,2.47-6.49,0-9.99-3.76-9.99-11.1h0Z"/>
      <path class="st1" d="M272.77,50.39v3.89h-8.24V11.58h8.7v13.89c2.34-2.79,6.04-4.28,9.8-4.28,8.96,0,14.8,7.53,14.8,16.87s-5.71,16.87-14.67,16.87c-3.89,0-7.98-1.43-10.38-4.54h0ZM289,38.06c0-5.06-3.37-8.83-8.05-8.83s-7.72,3.76-7.72,8.83,3.31,8.83,7.72,8.83c4.67,0,8.05-3.7,8.05-8.83Z"/>
      <path class="st1" d="M302.69,21.83h8.57v6.23c.91-2.66,4.22-6.88,11.36-6.88v9.48c-7.53,0-11.23,3.44-11.23,11.16v12.46h-8.7V21.83h0Z"/>
      <path class="st1" d="M325.1,38.06c0-9.41,7.66-16.87,17.33-16.87s17.39,7.46,17.39,16.87-7.66,16.87-17.39,16.87-17.33-7.46-17.33-16.87ZM350.93,38.06c0-5.06-3.63-8.83-8.5-8.83s-8.5,3.76-8.5,8.83,3.63,8.83,8.5,8.83,8.5-3.7,8.5-8.83Z"/>
      <path class="st1" d="M363.46,38.06c0-9.41,7.66-16.87,17.33-16.87s17.39,7.46,17.39,16.87-7.66,16.87-17.39,16.87-17.33-7.46-17.33-16.87ZM389.29,38.06c0-5.06-3.63-8.83-8.5-8.83s-8.5,3.76-8.5,8.83,3.63,8.83,8.5,8.83,8.5-3.7,8.5-8.83Z"/>
      <path class="st1" d="M402.72,11.58h8.7v23.75l11.16-13.5h10.58l-12.66,14.15,14.8,18.3h-10.45l-9.74-12.4-3.7,4.41v7.98h-8.7V11.58h.01Z"/>
      <path class="st1" d="M116.87,65.43h7.85l6.62,9.35c2.47,3.44,7.59,10.9,7.59,10.9,0,0,5.19-7.4,7.59-10.84l6.62-9.41h7.85v42.06h-9.09v-26.61s-1.62,2.66-3.83,5.84l-9.15,13.05-9.22-13.11c-2.14-3.05-3.76-5.78-3.76-5.78v26.61h-9.09v-42.06h.02Z"/>
      <path class="st1" d="M165.68,91.26c0-9.35,5.71-16.87,14.67-16.87,3.76,0,7.79,1.49,10.12,4.61v-3.96h8.5v32.45h-8.5v-3.89c-2.27,3.12-6.36,4.54-10.12,4.54-8.96,0-14.67-7.53-14.67-16.87h0ZM190.27,91.26c0-5.06-3.25-8.83-7.72-8.83s-8.05,3.76-8.05,8.83,3.37,8.83,8.05,8.83,7.72-3.63,7.72-8.83Z"/>
      <path class="st1" d="M205.68,75.04h8.5v4.35c2.6-3.57,6.3-5,10.25-5,8.57,0,11.55,5.52,11.55,14.41v18.69h-8.7v-17.59c0-4.74-1.23-7.27-5.65-7.27s-7.27,3.5-7.27,8.44v16.42h-8.7v-32.45h.02Z"/>
      <path class="st1" d="M241.05,94.44v-19.41h8.7v18.24c0,4.54,1.95,6.62,5.97,6.62,4.54,0,6.75-3.83,6.75-8.24v-16.61h8.7v32.45h-8.18v-4.54c-1.95,3.18-6.36,5.19-10.12,5.19-8.96,0-11.81-5.26-11.81-13.69h-.01Z"/>
      <path class="st1" d="M280.9,82.11h-5.06v-7.01h5.06v-2.14c0-7.53,4.15-10.77,9.67-10.77,2.92,0,6.17.84,8.44,2.01l-2.47,6.43c-.71-.32-2.14-.97-3.63-.97-1.82,0-3.31.91-3.31,4.28v1.17h8.11v7.01h-8.11v25.38h-8.7v-25.38h0Z"/>
      <path class="st1" d="M299.66,91.26c0-9.35,5.71-16.87,14.67-16.87,3.76,0,7.79,1.49,10.12,4.61v-3.96h8.5v32.45h-8.5v-3.89c-2.27,3.12-6.36,4.54-10.12,4.54-8.96,0-14.67-7.53-14.67-16.87h0ZM324.26,91.26c0-5.06-3.25-8.83-7.72-8.83s-8.05,3.76-8.05,8.83,3.37,8.83,8.05,8.83,7.72-3.63,7.72-8.83Z"/>
      <path class="st1" d="M337.69,91.26c0-9.41,7.66-16.87,17.33-16.87,4.48,0,8.37,1.49,11.62,4.15l-5.26,6.1c-1.49-1.36-3.57-2.21-6.17-2.21-5.06,0-8.7,3.7-8.7,8.83s3.44,8.83,8.96,8.83c2.73,0,5.39-1.04,7.07-2.66l4.61,6.49c-3.12,2.66-7.46,4.22-12.14,4.22-9.67,0-17.33-7.46-17.33-16.87h.01Z"/>
      <path class="st1" d="M373.98,97.04v-14.99h-4.74v-7.01h4.74v-6.23l8.7-1.95v8.18h8.96v7.01h-8.96v14.86c0,2.79,1.36,3.7,2.92,3.7,2.08,0,3.89-1.17,4.15-1.36l2.47,6.43c-1.95,1.3-4.8,2.47-8.24,2.47-6.49,0-9.99-3.76-9.99-11.1h-.01Z"/>
      <path class="st1" d="M396.7,94.44v-19.41h8.7v18.24c0,4.54,1.95,6.62,5.97,6.62,4.54,0,6.75-3.83,6.75-8.24v-16.61h8.7v32.45h-8.18v-4.54c-1.95,3.18-6.36,5.19-10.12,5.19-8.96,0-11.81-5.26-11.81-13.69h-.01Z"/>
      <path class="st1" d="M433.52,75.04h8.57v6.23c.91-2.66,4.22-6.88,11.36-6.88v9.48c-7.53,0-11.23,3.44-11.23,11.16v12.46h-8.7v-32.45h0Z"/>
      <path class="st1" d="M457.66,65.95c0-2.86,2.34-5.19,5.13-5.19s5.19,2.34,5.19,5.19-2.34,5.13-5.19,5.13-5.13-2.34-5.13-5.13ZM458.5,75.04h8.7v32.45h-8.7v-32.45Z"/>
      <path class="st1" d="M473.56,75.04h8.5v4.35c2.6-3.57,6.3-5,10.25-5,8.57,0,11.55,5.52,11.55,14.41v18.69h-8.7v-17.59c0-4.74-1.23-7.27-5.65-7.27s-7.27,3.5-7.27,8.44v16.42h-8.7v-32.45h.02Z"/>
      <path class="st1" d="M509.84,113l3.25-5.45c2.6,2.01,6.36,2.92,9.41,2.92,6.04,0,9.09-3.63,9.35-8.83.06-.19.06-.45.06-.71-1.43,2.53-4.93,4.8-9.74,4.8-9.02,0-14.67-7.01-14.67-15.64s5.65-15.71,14.67-15.71c4.15,0,8.44,1.82,10.19,5.06v-4.41h8.24v24.6c0,10.64-6.43,17.39-17.2,17.39-5.84,0-10.58-1.56-13.56-4.02h0ZM531.97,89.9c0-4.54-3.37-7.98-7.85-7.98s-7.79,3.44-7.79,8.18,3.37,8.05,7.79,8.05,7.85-3.37,7.85-8.24h0Z"/>
    </g>
    <g>
      <path class="st1" d="M124.56,129.57h1.75l7.4,15.82h-1.97l-1.46-3.07h-9.66l-1.46,3.07h-2l7.4-15.82h0ZM129.58,140.74l-2.9-6.13c-.54-1.14-1.14-2.65-1.24-2.85-.1.19-.68,1.68-1.24,2.85l-2.9,6.13h8.28Z"/>
      <path class="st1" d="M140.53,137.5c0-4.53,3.53-8.13,8.23-8.13s8.2,3.6,8.2,8.13-3.53,8.13-8.2,8.13-8.23-3.6-8.23-8.13ZM154.94,137.5c0-3.5-2.68-6.35-6.18-6.35s-6.21,2.85-6.21,6.35,2.68,6.35,6.21,6.35,6.18-2.85,6.18-6.35Z"/>
      <path class="st1" d="M158.98,133.54h1.85v2.02c.83-1.44,2.36-2.26,4.11-2.26,2.97,0,4.28,1.8,4.28,4.92v7.18h-1.85v-6.94c0-2.19-.8-3.36-2.94-3.36s-3.6,1.65-3.6,3.63v6.67h-1.85v-11.85h0Z"/>
      <path class="st1" d="M171.58,139.47c0-3.43,2.58-6.18,5.96-6.18,3.16,0,5.67,2.73,5.67,6.11,0,.34-.05.71-.05.73h-9.66c.29,2.36,2.12,3.85,4.31,3.85,1.34,0,2.68-.46,3.65-1.27l.8,1.36c-1.27,1-2.85,1.56-4.48,1.56-3.36,0-6.21-2.41-6.21-6.16h.01ZM181.39,138.72c-.2-2.19-1.87-3.77-3.94-3.77s-3.67,1.56-3.94,3.77h7.89,0Z"/>
      <path class="st1" d="M183.51,129.62h1.95l3.68,11.07c.32.95.63,2.12.63,2.12,0,0,.24-1.17.54-2.12l3.33-11.12h1.95l3.33,11.12c.29.97.54,2.12.54,2.12,0,0,.32-1.14.63-2.12l3.68-11.07h1.97l-5.28,15.87h-1.95l-3.33-10.9c-.32-1.02-.56-2.43-.56-2.43,0,0-.22,1.41-.54,2.43l-3.36,10.9h-1.95l-5.26-15.87Z"/>
      <path class="st1" d="M205.54,139.47c0-3.43,2.58-6.18,5.96-6.18,3.16,0,5.67,2.73,5.67,6.11,0,.34-.05.71-.05.73h-9.66c.29,2.36,2.12,3.85,4.31,3.85,1.34,0,2.68-.46,3.65-1.27l.8,1.36c-1.27,1-2.85,1.56-4.48,1.56-3.36,0-6.21-2.41-6.21-6.16h.01ZM215.34,138.72c-.2-2.19-1.87-3.77-3.94-3.77s-3.67,1.56-3.94,3.77h7.89,0Z"/>
      <path class="st1" d="M218.73,143.83l.75-1.51c.88.85,2.14,1.56,3.87,1.56,1.63,0,2.97-.75,2.97-1.83,0-1.24-1.43-1.58-2.87-1.95-2.19-.56-4.19-1.17-4.19-3.43,0-2.14,2.24-3.38,4.23-3.38,1.63,0,2.82.44,4.04,1.27l-.73,1.51c-1-.68-2.04-1.02-3.29-1.02s-2.36.68-2.36,1.61c0,1.17,1.31,1.44,2.7,1.73,2.14.49,4.36,1.29,4.36,3.63,0,2.51-2.56,3.63-4.87,3.63s-3.94-1.1-4.62-1.8v-.02Z"/>
      <path class="st1" d="M231.31,141.83v-6.77h-1.78v-1.53h1.78v-2.56l1.85-.34v2.9h4.04v1.53h-4.04v6.81c0,1.63.71,2.09,1.65,2.09,1.1,0,1.95-.66,1.95-.66l.61,1.44c-.46.32-1.44.88-2.73.88-2.09,0-3.33-1.02-3.33-3.8h0Z"/>
      <path class="st1" d="M244.5,137.48c0-4.5,3.53-8.1,8.23-8.1,2.09,0,4.01.75,5.43,2.02l-1.14,1.31c-1.19-1.02-2.6-1.56-4.16-1.56-3.65,0-6.33,2.85-6.33,6.33s2.68,6.38,6.21,6.38c1.82,0,3.48-.73,4.62-1.95l1.22,1.34c-1.46,1.46-3.5,2.38-5.84,2.38-4.7,0-8.23-3.6-8.23-8.15h0Z"/>
      <path class="st1" d="M259.72,139.47c0-3.46,2.75-6.18,6.23-6.18s6.23,2.73,6.23,6.18-2.75,6.16-6.23,6.16-6.23-2.73-6.23-6.16ZM270.28,139.47c0-2.51-1.87-4.38-4.33-4.38s-4.33,1.87-4.33,4.38,1.87,4.36,4.33,4.36,4.33-1.87,4.33-4.36Z"/>
      <path class="st1" d="M274.37,133.54h1.85v2.04c.66-1.29,2.14-2.29,3.8-2.29,1.9,0,3.24.83,3.8,2.51.85-1.73,2.7-2.51,4.09-2.51,2.85,0,4.36,1.65,4.36,4.92v7.18h-1.87v-6.94c0-2.02-.71-3.36-2.87-3.36-2,0-3.26,1.61-3.26,3.38v6.91h-1.87v-6.94c0-2.02-.71-3.36-2.85-3.36s-3.31,1.75-3.31,3.48v6.81h-1.85v-11.85l-.02.02Z"/>
      <path class="st1" d="M295.26,133.54h1.78v2.04c.88-1.53,2.6-2.29,4.53-2.29,3.29,0,5.6,2.7,5.6,6.16s-2.31,6.18-5.6,6.18c-1.87,0-3.58-.78-4.45-2.31v5.5h-1.85v-15.28h0ZM305.26,139.45c0-2.51-1.75-4.36-4.11-4.36s-4.04,1.87-4.04,4.36,1.78,4.38,4.04,4.38,4.11-1.85,4.11-4.38Z"/>
      <path class="st1" d="M308.82,139.47c0-3.48,2.31-6.18,5.6-6.18,1.9,0,3.58.78,4.45,2.31v-2.07h1.85v11.85h-1.85v-2.07c-.88,1.56-2.56,2.31-4.45,2.31-3.29,0-5.6-2.73-5.6-6.16h0ZM318.87,139.47c0-2.48-1.78-4.38-4.04-4.38s-4.11,1.85-4.11,4.38,1.75,4.36,4.11,4.36,4.04-1.87,4.04-4.36Z"/>
      <path class="st1" d="M323.81,133.54h1.85v2.02c.83-1.44,2.36-2.26,4.11-2.26,2.97,0,4.28,1.8,4.28,4.92v7.18h-1.85v-6.94c0-2.19-.8-3.36-2.94-3.36s-3.6,1.65-3.6,3.63v6.67h-1.85v-11.85h0Z"/>
      <path class="st1" d="M337.22,147.21c1.29,0,2.09-.36,2.9-2.07l.27-.54-5.33-11.07h1.92l3.72,7.96c.27.56.54,1.34.54,1.34,0,0,.36-.97.56-1.41l3.53-7.88h1.9l-5.65,12.44c-1.29,2.8-2.97,2.99-4.36,2.99v-1.75h0Z"/>
    </g>
  </g>
</svg>