<?xml version="1.0" standalone="no"?>
<!DOCTYPE svg PUBLIC "-//W3C//DTD SVG 20010904//EN"
 "http://www.w3.org/TR/2001/REC-SVG-20010904/DTD/svg10.dtd">
<svg version="1.0" xmlns="http://www.w3.org/2000/svg"
 width="700.000000pt" height="700.000000pt" viewBox="0 0 700.000000 700.000000"
 preserveAspectRatio="xMidYMid meet">
<metadata>
Created by potrace 1.11, written by Peter Selinger 2001-2013
</metadata>
<g transform="translate(0.000000,700.000000) scale(0.100000,-0.100000)"
fill="#000000" stroke="none">
<path d="M42 5981 c-11 -6 -44 -122 -37 -129 2 -2 21 -6 42 -9 61 -7 158 -59
201 -109 74 -83 129 -245 147 -429 3 -33 8 -67 10 -75 2 -8 6 -46 10 -85 3
-38 8 -77 10 -85 2 -8 6 -42 9 -75 4 -33 8 -76 11 -95 2 -19 7 -57 10 -85 3
-27 8 -63 10 -80 5 -36 13 -103 20 -170 3 -27 8 -66 10 -85 4 -35 31 -252 40
-325 3 -22 7 -67 11 -100 3 -33 7 -71 10 -85 5 -31 21 -167 29 -240 3 -30 8
-66 10 -80 2 -14 6 -50 10 -80 3 -30 12 -107 20 -170 8 -63 17 -140 21 -170 3
-30 7 -65 9 -78 2 -12 6 -50 9 -85 4 -34 9 -73 11 -87 2 -14 7 -54 11 -90 3
-36 8 -73 10 -84 2 -10 6 -44 9 -75 3 -31 8 -71 11 -89 2 -18 6 -54 9 -80 3
-26 10 -83 16 -127 12 -102 17 -137 24 -205 4 -30 8 -66 10 -80 2 -14 6 -50
10 -80 7 -68 11 -102 24 -205 6 -44 13 -102 16 -130 3 -27 7 -66 10 -85 2 -19
7 -57 10 -85 3 -27 7 -66 10 -85 20 -157 25 -202 30 -250 3 -30 8 -69 11 -86
3 -17 6 -48 8 -68 2 -21 7 -40 11 -44 7 -8 332 -10 344 -2 4 3 61 94 127 202
141 235 130 215 329 543 87 143 189 312 227 375 39 63 129 212 201 331 318
522 463 762 478 787 9 15 74 122 144 237 71 116 133 219 139 230 6 11 63 105
126 208 123 202 121 201 134 97 4 -30 11 -77 16 -105 5 -27 12 -72 15 -100 13
-102 15 -120 20 -135 2 -8 7 -42 10 -75 4 -33 8 -67 11 -75 2 -8 6 -35 9 -60
3 -25 14 -103 25 -175 11 -71 22 -150 25 -175 3 -25 8 -52 10 -60 2 -8 7 -37
10 -65 3 -27 7 -57 10 -65 2 -8 6 -39 10 -69 3 -30 10 -84 16 -120 6 -36 12
-82 15 -101 2 -19 6 -46 9 -60 2 -14 7 -45 10 -70 3 -25 8 -56 10 -70 2 -14 7
-45 10 -70 3 -25 8 -56 10 -70 6 -35 13 -77 20 -130 3 -25 8 -56 10 -70 3 -14
7 -41 9 -60 3 -19 14 -96 25 -170 11 -74 23 -157 26 -185 4 -27 8 -57 10 -65
2 -8 7 -35 10 -60 3 -25 15 -108 26 -185 12 -77 23 -156 25 -175 2 -19 6 -46
9 -60 2 -14 7 -47 11 -75 3 -27 8 -52 11 -55 5 -5 323 -8 340 -2 12 4 46 63
158 277 32 61 63 119 70 131 7 11 32 56 55 100 23 43 55 102 70 129 15 28 64
120 110 205 46 85 95 178 110 205 67 123 206 381 277 515 25 47 59 110 76 140
46 85 80 148 127 235 58 109 107 200 140 260 15 28 49 91 75 140 26 50 74 137
105 195 32 58 79 146 105 195 26 50 62 117 80 150 131 242 167 310 205 380 23
44 50 94 60 110 9 17 40 74 69 127 28 54 62 117 75 140 13 24 74 138 136 253
258 481 340 598 533 764 74 63 190 123 298 154 84 25 84 25 96 66 6 23 14 54
16 69 5 28 4 28 -42 26 -25 -2 -73 -6 -106 -9 -33 -3 -94 -9 -135 -13 -95 -9
-547 -8 -705 1 -66 4 -160 10 -210 13 -160 9 -214 11 -224 5 -5 -3 -16 -34
-25 -67 -18 -71 -19 -75 -8 -72 39 9 435 -91 489 -124 78 -47 114 -174 88
-318 -21 -120 -106 -326 -219 -529 -29 -53 -73 -132 -96 -176 -23 -44 -50 -93
-60 -110 -10 -16 -33 -59 -52 -95 -20 -36 -47 -85 -60 -110 -14 -25 -65 -117
-113 -205 -85 -155 -111 -203 -180 -330 -42 -78 -77 -140 -135 -245 -25 -47
-68 -125 -95 -175 -27 -49 -59 -108 -72 -130 -12 -22 -31 -56 -41 -75 -36 -70
-116 -217 -152 -280 -20 -36 -55 -99 -77 -140 -22 -41 -52 -95 -65 -120 -14
-25 -42 -76 -63 -115 -100 -184 -118 -216 -120 -213 -2 2 -6 32 -10 68 -3 36
-8 72 -10 80 -2 8 -7 42 -11 75 -3 33 -8 69 -10 80 -1 11 -5 40 -9 65 -3 25
-8 56 -10 70 -2 14 -6 50 -10 80 -7 63 -14 124 -20 160 -6 40 -14 96 -30 225
-9 66 -18 131 -20 145 -2 14 -7 48 -10 75 -3 28 -7 61 -10 75 -7 51 -15 106
-21 155 -3 28 -7 61 -9 75 -2 14 -6 43 -9 65 -3 22 -10 78 -17 125 -6 47 -13
98 -15 113 -2 15 -5 44 -8 65 -3 20 -13 93 -21 162 -9 69 -18 136 -20 150 -2
14 -9 63 -15 110 -17 134 -21 163 -25 190 -2 14 -9 63 -15 110 -6 47 -12 99
-15 115 -2 17 -7 52 -11 80 -3 27 -8 61 -11 75 -3 14 -7 106 -9 205 -4 201 5
255 53 334 67 108 198 159 428 165 44 2 37 -10 70 123 4 15 1 21 -7 18 -18 -5
-102 -14 -221 -22 -140 -10 -1122 -10 -1281 0 -71 4 -170 10 -220 13 -156 10
-217 10 -225 -1 -9 -11 -18 -43 -26 -99 -6 -33 -4 -36 17 -36 39 0 116 -56
151 -111 9 -13 34 -89 57 -169 37 -131 48 -186 64 -315 3 -22 10 -71 15 -110
6 -38 13 -92 16 -120 4 -27 8 -61 10 -75 2 -14 7 -47 10 -75 3 -27 8 -61 10
-75 2 -14 7 -43 9 -65 12 -97 16 -131 20 -150 2 -11 9 -69 16 -130 l13 -110
-148 -245 c-81 -135 -156 -258 -165 -275 -10 -16 -42 -70 -72 -120 -30 -49
-82 -137 -117 -195 -34 -58 -114 -190 -176 -293 -62 -104 -116 -194 -119 -200
-4 -7 -50 -85 -104 -174 -268 -445 -357 -591 -358 -590 -1 1 -5 36 -9 77 -4
41 -9 83 -10 92 -2 9 -6 45 -9 80 -4 35 -8 72 -10 83 -2 11 -7 49 -10 85 -4
36 -9 79 -11 95 -2 17 -6 57 -10 90 -3 33 -8 71 -10 85 -3 14 -7 52 -10 85 -3
33 -7 70 -9 82 -3 12 -7 50 -11 85 -3 35 -8 77 -10 93 -2 17 -7 55 -10 85 -3
30 -7 66 -9 80 -2 14 -7 52 -11 85 -13 116 -14 131 -29 255 -9 69 -18 152 -21
185 -4 33 -8 71 -10 85 -2 14 -7 50 -10 80 -3 30 -8 69 -10 85 -2 17 -6 57
-10 90 -5 54 -8 77 -20 165 -5 30 -15 128 -21 190 -2 25 -6 56 -8 70 -3 14 -8
57 -12 95 -3 39 -8 78 -9 87 -2 9 -6 48 -10 85 -3 37 -8 79 -10 93 -13 73 -18
137 -19 249 -2 141 7 234 29 300 18 54 99 142 156 172 34 17 133 35 180 33 12
-1 21 16 33 57 23 85 24 83 -41 75 -184 -22 -1020 -30 -1328 -13 -126 6 -237
12 -421 22 -34 1 -66 0 -72 -4z"/>
</g>
</svg>
